<?xml version="1.0" standalone="no"?>
<!DOCTYPE svg PUBLIC "-//W3C//DTD SVG 20010904//EN" "http://www.w3.org/TR/2001/REC-SVG-20010904/DTD/svg10.dtd">
<!-- Created using Krita: https://krita.org -->
<svg xmlns="http://www.w3.org/2000/svg" 
    xmlns:xlink="http://www.w3.org/1999/xlink"
    xmlns:krita="http://krita.org/namespaces/svg/krita"
    xmlns:sodipodi="http://sodipodi.sourceforge.net/DTD/sodipodi-0.dtd"
    width="18pt"
    height="18pt"
    viewBox="0 0 18 18">
<defs/>
<path id="shape0" fill="#1c9916" fill-rule="evenodd" stroke-opacity="0" stroke="#000000" stroke-width="0" stroke-linecap="square" stroke-linejoin="bevel" d="M0 15.3C0.949133 8.32275 1.3734 3.22275 1.27279 0C2.21066 4.89546 2.98604 9.96098 3.50018 15.3C4.58216 9.96209 4.94126 4.89434 4.83661 0C5.98755 4.92559 6.79274 10.0027 7.09582 15.3C8.09241 9.92061 8.45239 4.86395 8.43225 0C9.54166 4.83364 10.3762 9.87904 10.7233 15.3C12.078 9.96209 12.4001 4.89434 12.0597 0C13.102 4.86393 13.8908 9.92061 14.2553 15.3C15.3471 9.96234 15.7184 4.89405 15.6235 0C16.2778 3.20366 17.0699 8.30366 18 15.3L18 18L0 18Z" sodipodi:nodetypes="cccccccccccccc"/>
</svg>
