<?xml version="1.0" standalone="no"?>
<!DOCTYPE svg PUBLIC "-//W3C//DTD SVG 20010904//EN" "http://www.w3.org/TR/2001/REC-SVG-20010904/DTD/svg10.dtd">
<!-- Created using Krita: https://krita.org -->
<svg xmlns="http://www.w3.org/2000/svg" 
    xmlns:xlink="http://www.w3.org/1999/xlink"
    xmlns:krita="http://krita.org/namespaces/svg/krita"
    xmlns:sodipodi="http://sodipodi.sourceforge.net/DTD/sodipodi-0.dtd"
    width="48"
    height="48"
    viewBox="0 0 17.28 17.28">
<defs/>
<path id="shape0" transform="matrix(0.999999841054297 0 0 0.999999841054297 6.32249900041789 2.23651380212549)" fill="none" stroke="#8d6a1c" stroke-width="0.36" stroke-linecap="square" stroke-linejoin="bevel" d="M6.0075 0.823486C4.9275 0.800986 4.365 -0.121514 2.3175 0.0134859C0.9525 0.103486 0.2025 0.320986 0.0675 0.665986L0 0.710986" sodipodi:nodetypes="czcc"/><path id="shape1" transform="matrix(0.999999841054297 0 0 0.999999841054297 5.89499906800529 0.893999858659328)" fill="none" stroke="#8d6a1c" stroke-width="0.36" stroke-linecap="square" stroke-linejoin="bevel" d="M6.5475 0.0285C5.175 0.7485 4.275 1.1985 3.375 0.4335C2.775 -0.0765 1.65 -0.1365 0 0.2535" sodipodi:nodetypes="czc"/><path id="shape2" transform="matrix(0.999999841054297 0 0 0.999999841054297 7.35749883678524 3.00149952546529)" fill="none" stroke="#8d6a1c" stroke-width="0.36" stroke-linecap="square" stroke-linejoin="bevel" d="M2.34 0.0585C1.635 -0.1365 0.855 0.156 0 0.936" sodipodi:nodetypes="cc"/><path id="shape3" transform="matrix(0.999999841054297 0 0 0.999999841054297 8.32499868382427 0)" fill="none" stroke="#8d6a1c" stroke-width="0.36" stroke-linecap="square" stroke-linejoin="bevel" d="M3.2175 0C2.8275 0.63 2.19 1.1625 1.305 1.5975L0 2.4525" sodipodi:nodetypes="ccc"/><path id="shape4" transform="matrix(0.999999841054297 0 0 0.999999841054297 4.58999927432474 2.60897732814052)" fill="none" stroke="#8d6a1c" stroke-width="0.36" stroke-linecap="square" stroke-linejoin="bevel" d="M0 0.518523C1.26 -0.0664778 2.4 -0.156477 3.42 0.248523" sodipodi:nodetypes="cc"/><path id="shape5" transform="matrix(0.999999841054297 0 0 0.999999841054297 6.8849989114871 2.86981158400433)" fill="none" stroke="#8d6a1c" stroke-width="0.36" stroke-linecap="square" stroke-linejoin="bevel" d="M0 0.550189C1.635 0.0101879 3.2475 -0.132311 4.8375 0.122689" sodipodi:nodetypes="cc"/><path id="shape6" transform="matrix(0.999999841054297 0 0 0.999999841054297 9.44999850596269 2.2724996407196)" fill="none" stroke="#8d6a1c" stroke-width="0.36" stroke-linecap="square" stroke-linejoin="bevel" d="M3.3075 0C2.2875 0.765 1.185 1.32 0 1.665" sodipodi:nodetypes="cc"/><path id="shape7" transform="matrix(0.999999841054297 0 0 0.999999841054297 5.53499912492102 0)" fill="none" stroke="#8d6a1c" stroke-width="0.36" stroke-linecap="square" stroke-linejoin="bevel" d="M3.69 0C2.0925 1.1025 2.16 0.7425 1.2375 1.0575C0.6225 1.2675 0.21 1.35 0 1.305" sodipodi:nodetypes="czc"/><path id="shape8" transform="matrix(0.999999841054297 0 0 0.999999841054297 5.10749919250841 0.832499868382427)" fill="none" stroke="#8d6a1c" stroke-width="0.36" stroke-linecap="square" stroke-linejoin="bevel" d="M0 0C1.56 0.705 3.18 1.05 4.86 1.035L5.4225 0.945" sodipodi:nodetypes="ccc"/><path id="shape9" transform="matrix(0.999999841054297 0 0 0.999999841054297 4.67999926009581 1.59545428906347)" fill="none" stroke="#8d6a1c" stroke-width="0.36" stroke-linecap="square" stroke-linejoin="bevel" d="M0.09 0.902045C1.335 0.272045 2.13 -0.0279545 2.475 0.00204545C1.56 0.227045 0.735 0.227045 0 0.00204545" sodipodi:nodetypes="ccc"/><path id="shape10" transform="matrix(0.999999841054297 0 0 0.999999841054297 9.62999847750485 1.7099997296504)" fill="none" stroke="#8d6a1c" stroke-width="0.36" stroke-linecap="square" stroke-linejoin="bevel" d="M0 0C0.15 0.51 0.5925 0.7875 1.3275 0.8325C2.0625 0.8775 2.4225 0.9075 2.4075 0.9225" sodipodi:nodetypes="czc"/><path id="shape11" transform="matrix(0.999999841054297 0 0 0.999999841054297 7.1774988652431 1.57499975099379)" fill="none" stroke="#8d6a1c" stroke-width="0.36" stroke-linecap="square" stroke-linejoin="bevel" d="M5.355 0C4.08 0.555 2.295 0.8775 0 0.9675L0.27 0.6075" sodipodi:nodetypes="ccc"/><path id="shape12" transform="matrix(0.999999841054297 0 0 0.999999841054297 9.85499844193252 0)" fill="none" stroke="#8d6a1c" stroke-width="0.36" stroke-linecap="square" stroke-linejoin="bevel" d="M2.8125 0C2.1225 0.51 1.185 0.9 0 1.17" sodipodi:nodetypes="cc"/><path id="shape13" transform="matrix(0.999999841054297 0 0 0.999999841054297 5.12999918895118 0)" fill="none" stroke="#8d6a1c" stroke-width="0.36" stroke-linecap="square" stroke-linejoin="bevel" d="M2.25 0C3.75 0.57 4.6575 0.8625 4.9725 0.8775C2.5725 0.8625 0.915 0.57 0 0" sodipodi:nodetypes="ccc"/><path id="shape14" transform="matrix(0.999999841054297 0 0 0.999999841054297 4.56749927788197 0)" fill="none" stroke="#8d6a1c" stroke-width="0.36" stroke-linecap="square" stroke-linejoin="bevel" d="M5.49 0C4.545 0.99 3.42 1.4025 2.115 1.2375L2.115 1.2375C1.32 1.0725 0.615 0.7425 0 0.2475" sodipodi:nodetypes="cccc"/><path id="shape15" transform="matrix(0.999999841054297 0 0 0.999999841054297 13.3874978834472 2.03294114205778)" fill="none" stroke="#8d6a1c" stroke-width="0.36" stroke-linecap="square" stroke-linejoin="bevel" d="M3.645 0.194559C2.52 -0.120441 1.59 -0.0529415 0.855 0.397059L0 0.0820585" sodipodi:nodetypes="ccc"/><path id="shape16" transform="matrix(0.999999841054297 0 0 0.999999841054297 15.8399974957089 0.337499946641524)" fill="none" stroke="#8d6a1c" stroke-width="0.36" stroke-linecap="square" stroke-linejoin="bevel" d="M0.2025 0C0.4125 0.855 0.345 1.6575 0 2.4075" sodipodi:nodetypes="cc"/><path id="shape17" transform="matrix(0.999999841054297 0 0 0.999999841054297 15.5249975455102 2.31749963360514)" fill="none" stroke="#8d6a1c" stroke-width="0.36" stroke-linecap="square" stroke-linejoin="bevel" d="M0.09 1.8675C0.525 1.1025 0.495 0.48 0 0C0.81 0.24 1.395 0.7575 1.755 1.5525" sodipodi:nodetypes="ccc"/><path id="shape18" transform="matrix(0.999999841054297 0 0 0.999999841054297 15.4574975561819 0.787499875496891)" fill="none" stroke="#8d6a1c" stroke-width="0.36" stroke-linecap="square" stroke-linejoin="bevel" d="M0.9675 3.3075C1.2525 2.5275 0.93 1.5975 0 0.5175L0 0" sodipodi:nodetypes="ccc"/><path id="shape19" transform="matrix(0.999999841054297 0 0 0.999999841054297 13.2524979047905 0.873959931066624)" fill="none" stroke="#8d6a1c" stroke-width="0.36" stroke-linecap="square" stroke-linejoin="bevel" d="M0 0.116041C1.89 -0.153959 1.845 0.09354 2.115 0.386041C2.295 0.581041 2.5725 0.873541 2.9475 1.26354" sodipodi:nodetypes="czc"/><path id="shape20" transform="matrix(0.999999841054297 0 0 0.999999841054297 13.1849979154622 0)" fill="none" stroke="#8d6a1c" stroke-width="0.36" stroke-linecap="square" stroke-linejoin="bevel" d="M0 2.3625C0.87 1.9275 1.11 1.365 0.72 0.675L0.405 0C0.84 0.735 1.305 1.17 1.8 1.305L2.8575 1.2375C2.1675 2.0325 1.7475 2.9775 1.5975 4.0725" sodipodi:nodetypes="cccccc"/><path id="shape21" transform="matrix(0.999999841054297 0 0 0.999999841054297 13.6349978443176 0.314999950198757)" fill="none" stroke="#8d6a1c" stroke-width="0.36" stroke-linecap="square" stroke-linejoin="bevel" d="M0.2925 0L1.5075 1.2825C0.7125 1.9275 0.21 2.73 0 3.69" sodipodi:nodetypes="ccc"/><path id="shape22" transform="matrix(0.999999841054297 0 0 0.999999841054297 16.5149973889919 1.86749970474977)" fill="none" stroke="#8d6a1c" stroke-width="0.36" stroke-linecap="square" stroke-linejoin="bevel" d="M0 0L0.27 0.8775" sodipodi:nodetypes="cc"/><path id="shape01" transform="matrix(6.12323302247502e-17 0.999999841054297 -0.999999841054297 6.12323302247502e-17 14.7959834800534 6.18749901610553)" fill="none" stroke="#8d6a1c" stroke-width="0.36" stroke-linecap="square" stroke-linejoin="bevel" d="M6.0075 0.823486C4.9275 0.800986 4.365 -0.121514 2.3175 0.0134859C0.9525 0.103486 0.2025 0.320986 0.0675 0.665986L0 0.710986" sodipodi:nodetypes="czcc"/><path id="shape11" transform="matrix(6.12323302247502e-17 0.999999841054297 -0.999999841054297 6.12323302247502e-17 16.1384974235196 5.75999908369292)" fill="none" stroke="#8d6a1c" stroke-width="0.36" stroke-linecap="square" stroke-linejoin="bevel" d="M6.5475 0.0285C5.175 0.7485 4.275 1.1985 3.375 0.4335C2.775 -0.0765 1.65 -0.1365 0 0.2535" sodipodi:nodetypes="czc"/><path id="shape21" transform="matrix(6.12323302247502e-17 0.999999841054297 -0.999999841054297 6.12323302247502e-17 14.0309977567136 7.22249885247287)" fill="none" stroke="#8d6a1c" stroke-width="0.36" stroke-linecap="square" stroke-linejoin="bevel" d="M2.34 0.0585C1.635 -0.1365 0.855 0.156 0 0.936" sodipodi:nodetypes="cc"/><path id="shape31" transform="matrix(6.12323302247502e-17 0.999999841054297 -0.999999841054297 6.12323302247502e-17 17.0324972821789 8.1899986995119)" fill="none" stroke="#8d6a1c" stroke-width="0.36" stroke-linecap="square" stroke-linejoin="bevel" d="M3.2175 0C2.8275 0.63 2.19 1.1625 1.305 1.5975L0 2.4525" sodipodi:nodetypes="ccc"/><path id="shape41" transform="matrix(6.12323302247502e-17 0.999999841054297 -0.999999841054297 6.12323302247502e-17 14.4235199540383 4.45499929001237)" fill="none" stroke="#8d6a1c" stroke-width="0.36" stroke-linecap="square" stroke-linejoin="bevel" d="M0 0.518523C1.26 -0.0664778 2.4 -0.156477 3.42 0.248523" sodipodi:nodetypes="cc"/><path id="shape51" transform="matrix(6.12323302247502e-17 0.999999841054297 -0.999999841054297 6.12323302247502e-17 14.1626856981745 6.74999892717474)" fill="none" stroke="#8d6a1c" stroke-width="0.36" stroke-linecap="square" stroke-linejoin="bevel" d="M0 0.550189C1.635 0.0101879 3.2475 -0.132311 4.8375 0.122689" sodipodi:nodetypes="cc"/><path id="shape61" transform="matrix(6.12323302247502e-17 0.999999841054297 -0.999999841054297 6.12323302247502e-17 14.7599976414593 9.31499852165032)" fill="none" stroke="#8d6a1c" stroke-width="0.36" stroke-linecap="square" stroke-linejoin="bevel" d="M3.3075 0C2.2875 0.765 1.185 1.32 0 1.665" sodipodi:nodetypes="cc"/><path id="shape71" transform="matrix(6.12323302247502e-17 0.999999841054297 -0.999999841054297 6.12323302247502e-17 17.0324972821789 5.39999914060864)" fill="none" stroke="#8d6a1c" stroke-width="0.36" stroke-linecap="square" stroke-linejoin="bevel" d="M3.69 0C2.0925 1.1025 2.16 0.7425 1.2375 1.0575C0.6225 1.2675 0.21 1.35 0 1.305" sodipodi:nodetypes="czc"/><path id="shape81" transform="matrix(6.12323302247502e-17 0.999999841054297 -0.999999841054297 6.12323302247502e-17 16.1999974137965 4.97249920819604)" fill="none" stroke="#8d6a1c" stroke-width="0.36" stroke-linecap="square" stroke-linejoin="bevel" d="M0 0C1.56 0.705 3.18 1.05 4.86 1.035L5.4225 0.945" sodipodi:nodetypes="ccc"/><path id="shape91" transform="matrix(6.12323302247502e-17 0.999999841054297 -0.999999841054297 6.12323302247502e-17 15.4370429931155 4.54499927578344)" fill="none" stroke="#8d6a1c" stroke-width="0.36" stroke-linecap="square" stroke-linejoin="bevel" d="M0.09 0.902045C1.335 0.272045 2.13 -0.0279545 2.475 0.00204545C1.56 0.227045 0.735 0.227045 0 0.00204545" sodipodi:nodetypes="ccc"/><path id="shape101" transform="matrix(6.12323302247502e-17 0.999999841054297 -0.999999841054297 6.12323302247502e-17 15.3224975525286 9.49499849319247)" fill="none" stroke="#8d6a1c" stroke-width="0.36" stroke-linecap="square" stroke-linejoin="bevel" d="M0 0C0.15 0.51 0.5925 0.7875 1.3275 0.8325C2.0625 0.8775 2.4225 0.9075 2.4075 0.9225" sodipodi:nodetypes="czc"/><path id="shape111" transform="matrix(6.12323302247502e-17 0.999999841054297 -0.999999841054297 6.12323302247502e-17 15.4574975311851 7.04249888093073)" fill="none" stroke="#8d6a1c" stroke-width="0.36" stroke-linecap="square" stroke-linejoin="bevel" d="M5.355 0C4.08 0.555 2.295 0.8775 0 0.9675L0.27 0.6075" sodipodi:nodetypes="ccc"/><path id="shape121" transform="matrix(6.12323302247502e-17 0.999999841054297 -0.999999841054297 6.12323302247502e-17 17.0324972821789 9.71999845762015)" fill="none" stroke="#8d6a1c" stroke-width="0.36" stroke-linecap="square" stroke-linejoin="bevel" d="M2.8125 0C2.1225 0.51 1.185 0.9 0 1.17" sodipodi:nodetypes="cc"/><path id="shape131" transform="matrix(6.12323302247502e-17 0.999999841054297 -0.999999841054297 6.12323302247502e-17 17.0324972821789 4.99499920463882)" fill="none" stroke="#8d6a1c" stroke-width="0.36" stroke-linecap="square" stroke-linejoin="bevel" d="M2.25 0C3.75 0.57 4.6575 0.8625 4.9725 0.8775C2.5725 0.8625 0.915 0.57 0 0" sodipodi:nodetypes="ccc"/><path id="shape141" transform="matrix(6.12323302247502e-17 0.999999841054297 -0.999999841054297 6.12323302247502e-17 17.0324972821789 4.4324992935696)" fill="none" stroke="#8d6a1c" stroke-width="0.36" stroke-linecap="square" stroke-linejoin="bevel" d="M5.49 0C4.545 0.99 3.42 1.4025 2.115 1.2375L2.115 1.2375C1.32 1.0725 0.615 0.7425 0 0.2475" sodipodi:nodetypes="cccc"/><path id="shape151" transform="matrix(6.12323302247502e-17 0.999999841054297 -0.999999841054297 6.12323302247502e-17 14.9995561401211 13.2524978991347)" fill="none" stroke="#8d6a1c" stroke-width="0.36" stroke-linecap="square" stroke-linejoin="bevel" d="M3.645 0.194559C2.52 -0.120441 1.59 -0.0529415 0.855 0.397059L0 0.0820585" sodipodi:nodetypes="ccc"/><path id="shape161" transform="matrix(6.12323302247502e-17 0.999999841054297 -0.999999841054297 6.12323302247502e-17 16.6949973355374 15.7049975113965)" fill="none" stroke="#8d6a1c" stroke-width="0.36" stroke-linecap="square" stroke-linejoin="bevel" d="M0.2025 0C0.4125 0.855 0.345 1.6575 0 2.4075" sodipodi:nodetypes="cc"/><path id="shape171" transform="matrix(6.12323302247502e-17 0.999999841054297 -0.999999841054297 6.12323302247502e-17 14.7149976485738 15.3899975611977)" fill="none" stroke="#8d6a1c" stroke-width="0.36" stroke-linecap="square" stroke-linejoin="bevel" d="M0.09 1.8675C0.525 1.1025 0.495 0.48 0 0C0.81 0.24 1.395 0.7575 1.755 1.5525" sodipodi:nodetypes="ccc"/><path id="shape181" transform="matrix(6.12323302247502e-17 0.999999841054297 -0.999999841054297 6.12323302247502e-17 16.244997406682 15.3224975718695)" fill="none" stroke="#8d6a1c" stroke-width="0.36" stroke-linecap="square" stroke-linejoin="bevel" d="M0.9675 3.3075C1.2525 2.5275 0.93 1.5975 0 0.5175L0 0" sodipodi:nodetypes="ccc"/><path id="shape191" transform="matrix(6.12323302247502e-17 0.999999841054297 -0.999999841054297 6.12323302247502e-17 16.1585373511123 13.1174979204781)" fill="none" stroke="#8d6a1c" stroke-width="0.36" stroke-linecap="square" stroke-linejoin="bevel" d="M0 0.116041C1.89 -0.153959 1.845 0.09354 2.115 0.386041C2.295 0.581041 2.5725 0.873541 2.9475 1.26354" sodipodi:nodetypes="czc"/><path id="shape201" transform="matrix(6.12323302247502e-17 0.999999841054297 -0.999999841054297 6.12323302247502e-17 17.0324972821789 13.0499979311499)" fill="none" stroke="#8d6a1c" stroke-width="0.36" stroke-linecap="square" stroke-linejoin="bevel" d="M0 2.3625C0.87 1.9275 1.11 1.365 0.72 0.675L0.405 0C0.84 0.735 1.305 1.17 1.8 1.305L2.8575 1.2375C2.1675 2.0325 1.7475 2.9775 1.5975 4.0725" sodipodi:nodetypes="cccccc"/><path id="shape211" transform="matrix(6.12323302247502e-17 0.999999841054297 -0.999999841054297 6.12323302247502e-17 16.7174973319801 13.4999978600052)" fill="none" stroke="#8d6a1c" stroke-width="0.36" stroke-linecap="square" stroke-linejoin="bevel" d="M0.2925 0L1.5075 1.2825C0.7125 1.9275 0.21 2.73 0 3.69" sodipodi:nodetypes="ccc"/><path id="shape221" transform="matrix(6.12323302247502e-17 0.999999841054297 -0.999999841054297 6.12323302247502e-17 15.1649975774291 16.3799974046796)" fill="none" stroke="#8d6a1c" stroke-width="0.36" stroke-linecap="square" stroke-linejoin="bevel" d="M0 0L0.27 0.8775" sodipodi:nodetypes="cc"/><path id="shape02" transform="matrix(-0.999999841054297 0 0 -0.999999841054297 11.2220387968015 14.9639339521442)" fill="none" stroke="#8d6a1c" stroke-width="0.36" stroke-linecap="square" stroke-linejoin="bevel" d="M6.0075 0.823486C4.9275 0.800986 4.365 -0.121514 2.3175 0.0134859C0.9525 0.103486 0.2025 0.320986 0.0675 0.665986L0 0.710986" sodipodi:nodetypes="czcc"/><path id="shape12" transform="matrix(-0.999999841054297 0 0 -0.999999841054297 11.6495387292142 16.3064478956103)" fill="none" stroke="#8d6a1c" stroke-width="0.36" stroke-linecap="square" stroke-linejoin="bevel" d="M6.5475 0.0285C5.175 0.7485 4.275 1.1985 3.375 0.4335C2.775 -0.0765 1.65 -0.1365 0 0.2535" sodipodi:nodetypes="czc"/><path id="shape22" transform="matrix(-0.999999841054297 0 0 -0.999999841054297 10.1870389604341 14.1989482288043)" fill="none" stroke="#8d6a1c" stroke-width="0.36" stroke-linecap="square" stroke-linejoin="bevel" d="M2.34 0.0585C1.635 -0.1365 0.855 0.156 0 0.936" sodipodi:nodetypes="cc"/><path id="shape32" transform="matrix(-0.999999841054297 0 0 -0.999999841054297 9.21953911339518 17.2004477542696)" fill="none" stroke="#8d6a1c" stroke-width="0.36" stroke-linecap="square" stroke-linejoin="bevel" d="M3.2175 0C2.8275 0.63 2.19 1.1625 1.305 1.5975L0 2.4525" sodipodi:nodetypes="ccc"/><path id="shape42" transform="matrix(-0.999999841054297 0 0 -0.999999841054297 12.9545385228947 14.5914704261291)" fill="none" stroke="#8d6a1c" stroke-width="0.36" stroke-linecap="square" stroke-linejoin="bevel" d="M0 0.518523C1.26 -0.0664778 2.4 -0.156477 3.42 0.248523" sodipodi:nodetypes="cc"/><path id="shape52" transform="matrix(-0.999999841054297 0 0 -0.999999841054297 10.6595388857323 14.3306361702653)" fill="none" stroke="#8d6a1c" stroke-width="0.36" stroke-linecap="square" stroke-linejoin="bevel" d="M0 0.550189C1.635 0.0101879 3.2475 -0.132311 4.8375 0.122689" sodipodi:nodetypes="cc"/><path id="shape62" transform="matrix(-0.999999841054297 0 0 -0.999999841054297 8.09453929125677 14.92794811355)" fill="none" stroke="#8d6a1c" stroke-width="0.36" stroke-linecap="square" stroke-linejoin="bevel" d="M3.3075 0C2.2875 0.765 1.185 1.32 0 1.665" sodipodi:nodetypes="cc"/><path id="shape72" transform="matrix(-0.999999841054297 0 0 -0.999999841054297 12.0095386722985 17.2004477542696)" fill="none" stroke="#8d6a1c" stroke-width="0.36" stroke-linecap="square" stroke-linejoin="bevel" d="M3.69 0C2.0925 1.1025 2.16 0.7425 1.2375 1.0575C0.6225 1.2675 0.21 1.35 0 1.305" sodipodi:nodetypes="czc"/><path id="shape82" transform="matrix(-0.999999841054297 0 0 -0.999999841054297 12.437038604711 16.3679478858872)" fill="none" stroke="#8d6a1c" stroke-width="0.36" stroke-linecap="square" stroke-linejoin="bevel" d="M0 0C1.56 0.705 3.18 1.05 4.86 1.035L5.4225 0.945" sodipodi:nodetypes="ccc"/><path id="shape92" transform="matrix(-0.999999841054297 0 0 -0.999999841054297 12.8645385371236 15.6049934652062)" fill="none" stroke="#8d6a1c" stroke-width="0.36" stroke-linecap="square" stroke-linejoin="bevel" d="M0.09 0.902045C1.335 0.272045 2.13 -0.0279545 2.475 0.00204545C1.56 0.227045 0.735 0.227045 0 0.00204545" sodipodi:nodetypes="ccc"/><path id="shape102" transform="matrix(-0.999999841054297 0 0 -0.999999841054297 7.91453931971461 15.4904480246192)" fill="none" stroke="#8d6a1c" stroke-width="0.36" stroke-linecap="square" stroke-linejoin="bevel" d="M0 0C0.15 0.51 0.5925 0.7875 1.3275 0.8325C2.0625 0.8775 2.4225 0.9075 2.4075 0.9225" sodipodi:nodetypes="czc"/><path id="shape112" transform="matrix(-0.999999841054297 0 0 -0.999999841054297 10.3670389319764 15.6254480032759)" fill="none" stroke="#8d6a1c" stroke-width="0.36" stroke-linecap="square" stroke-linejoin="bevel" d="M5.355 0C4.08 0.555 2.295 0.8775 0 0.9675L0.27 0.6075" sodipodi:nodetypes="ccc"/><path id="shape122" transform="matrix(-0.999999841054297 0 0 -0.999999841054297 7.68953935528693 17.2004477542696)" fill="none" stroke="#8d6a1c" stroke-width="0.36" stroke-linecap="square" stroke-linejoin="bevel" d="M2.8125 0C2.1225 0.51 1.185 0.9 0 1.17" sodipodi:nodetypes="cc"/><path id="shape132" transform="matrix(-0.999999841054297 0 0 -0.999999841054297 12.4145386082683 17.2004477542696)" fill="none" stroke="#8d6a1c" stroke-width="0.36" stroke-linecap="square" stroke-linejoin="bevel" d="M2.25 0C3.75 0.57 4.6575 0.8625 4.9725 0.8775C2.5725 0.8625 0.915 0.57 0 0" sodipodi:nodetypes="ccc"/><path id="shape142" transform="matrix(-0.999999841054297 0 0 -0.999999841054297 12.9770385193375 17.2004477542696)" fill="none" stroke="#8d6a1c" stroke-width="0.36" stroke-linecap="square" stroke-linejoin="bevel" d="M5.49 0C4.545 0.99 3.42 1.4025 2.115 1.2375L2.115 1.2375C1.32 1.0725 0.615 0.7425 0 0.2475" sodipodi:nodetypes="cccc"/><path id="shape152" transform="matrix(-0.999999841054297 0 0 -0.999999841054297 4.15703991377231 15.1675066122118)" fill="none" stroke="#8d6a1c" stroke-width="0.36" stroke-linecap="square" stroke-linejoin="bevel" d="M3.645 0.194559C2.52 -0.120441 1.59 -0.0529415 0.855 0.397059L0 0.0820585" sodipodi:nodetypes="ccc"/><path id="shape162" transform="matrix(-0.999999841054297 0 0 -0.999999841054297 1.70454030151056 16.8629478076281)" fill="none" stroke="#8d6a1c" stroke-width="0.36" stroke-linecap="square" stroke-linejoin="bevel" d="M0.2025 0C0.4125 0.855 0.345 1.6575 0 2.4075" sodipodi:nodetypes="cc"/><path id="shape172" transform="matrix(-0.999999841054297 0 0 -0.999999841054297 2.01954025170931 14.8829481206645)" fill="none" stroke="#8d6a1c" stroke-width="0.36" stroke-linecap="square" stroke-linejoin="bevel" d="M0.09 1.8675C0.525 1.1025 0.495 0.48 0 0C0.81 0.24 1.395 0.7575 1.755 1.5525" sodipodi:nodetypes="ccc"/><path id="shape182" transform="matrix(-0.999999841054297 0 0 -0.999999841054297 2.08704024103762 16.4129478787728)" fill="none" stroke="#8d6a1c" stroke-width="0.36" stroke-linecap="square" stroke-linejoin="bevel" d="M0.9675 3.3075C1.2525 2.5275 0.93 1.5975 0 0.5175L0 0" sodipodi:nodetypes="ccc"/><path id="shape192" transform="matrix(-0.999999841054297 0 0 -0.999999841054297 4.29203989242891 16.326487823203)" fill="none" stroke="#8d6a1c" stroke-width="0.36" stroke-linecap="square" stroke-linejoin="bevel" d="M0 0.116041C1.89 -0.153959 1.845 0.09354 2.115 0.386041C2.295 0.581041 2.5725 0.873541 2.9475 1.26354" sodipodi:nodetypes="czc"/><path id="shape202" transform="matrix(-0.999999841054297 0 0 -0.999999841054297 4.35953988175722 17.2004477542696)" fill="none" stroke="#8d6a1c" stroke-width="0.36" stroke-linecap="square" stroke-linejoin="bevel" d="M0 2.3625C0.87 1.9275 1.11 1.365 0.72 0.675L0.405 0C0.84 0.735 1.305 1.17 1.8 1.305L2.8575 1.2375C2.1675 2.0325 1.7475 2.9775 1.5975 4.0725" sodipodi:nodetypes="cccccc"/><path id="shape212" transform="matrix(-0.999999841054297 0 0 -0.999999841054297 3.90953995290185 16.8854478040709)" fill="none" stroke="#8d6a1c" stroke-width="0.36" stroke-linecap="square" stroke-linejoin="bevel" d="M0.2925 0L1.5075 1.2825C0.7125 1.9275 0.21 2.73 0 3.69" sodipodi:nodetypes="ccc"/><path id="shape222" transform="matrix(-0.999999841054297 0 0 -0.999999841054297 1.02954040822751 15.3329480495199)" fill="none" stroke="#8d6a1c" stroke-width="0.36" stroke-linecap="square" stroke-linejoin="bevel" d="M0 0L0.27 0.8775" sodipodi:nodetypes="cc"/><path id="shape03" transform="matrix(6.12323302247502e-17 0.999999841054297 -0.999999841054297 6.12323302247502e-17 1.9034855387727 1.93499969682079)" fill="none" stroke="#8d6a1c" stroke-width="0.36" stroke-linecap="square" stroke-linejoin="bevel" d="M6.0075 0.823486C4.9275 0.800986 4.365 -0.121514 2.3175 0.0134859C0.9525 0.103486 0.2025 0.320986 0.0675 0.665986L0 0.710986" sodipodi:nodetypes="czcc"/><path id="shape13" transform="matrix(6.12323302247502e-17 0.999999841054297 -0.999999841054297 6.12323302247502e-17 3.24599948223885 1.50749976440819)" fill="none" stroke="#8d6a1c" stroke-width="0.36" stroke-linecap="square" stroke-linejoin="bevel" d="M6.5475 0.0285C5.175 0.7485 4.275 1.1985 3.375 0.4335C2.775 -0.0765 1.65 -0.1365 0 0.2535" sodipodi:nodetypes="czc"/><path id="shape23" transform="matrix(6.12323302247502e-17 0.999999841054297 -0.999999841054297 6.12323302247502e-17 1.1384998154329 2.96999953318814)" fill="none" stroke="#8d6a1c" stroke-width="0.36" stroke-linecap="square" stroke-linejoin="bevel" d="M2.34 0.0585C1.635 -0.1365 0.855 0.156 0 0.936" sodipodi:nodetypes="cc"/><path id="shape33" transform="matrix(6.12323302247502e-17 0.999999841054297 -0.999999841054297 6.12323302247502e-17 4.13999934089819 3.93749938022717)" fill="none" stroke="#8d6a1c" stroke-width="0.36" stroke-linecap="square" stroke-linejoin="bevel" d="M3.2175 0C2.8275 0.63 2.19 1.1625 1.305 1.5975L0 2.4525" sodipodi:nodetypes="ccc"/><path id="shape43" transform="matrix(6.12323302247502e-17 0.999999841054297 -0.999999841054297 6.12323302247502e-17 1.53102201275766 0.202499970727632)" fill="none" stroke="#8d6a1c" stroke-width="0.36" stroke-linecap="square" stroke-linejoin="bevel" d="M0 0.518523C1.26 -0.0664778 2.4 -0.156477 3.42 0.248523" sodipodi:nodetypes="cc"/><path id="shape53" transform="matrix(6.12323302247502e-17 0.999999841054297 -0.999999841054297 6.12323302247502e-17 1.27018775689384 2.49749960788999)" fill="none" stroke="#8d6a1c" stroke-width="0.36" stroke-linecap="square" stroke-linejoin="bevel" d="M0 0.550189C1.635 0.0101879 3.2475 -0.132311 4.8375 0.122689" sodipodi:nodetypes="cc"/><path id="shape63" transform="matrix(6.12323302247502e-17 0.999999841054297 -0.999999841054297 6.12323302247502e-17 1.86749970017859 5.06249920236559)" fill="none" stroke="#8d6a1c" stroke-width="0.36" stroke-linecap="square" stroke-linejoin="bevel" d="M3.3075 0C2.2875 0.765 1.185 1.32 0 1.665" sodipodi:nodetypes="cc"/><path id="shape73" transform="matrix(6.12323302247502e-17 0.999999841054297 -0.999999841054297 6.12323302247502e-17 4.13999934089819 1.1474998213239)" fill="none" stroke="#8d6a1c" stroke-width="0.36" stroke-linecap="square" stroke-linejoin="bevel" d="M3.69 0C2.0925 1.1025 2.16 0.7425 1.2375 1.0575C0.6225 1.2675 0.21 1.35 0 1.305" sodipodi:nodetypes="czc"/><path id="shape83" transform="matrix(6.12323302247502e-17 0.999999841054297 -0.999999841054297 6.12323302247502e-17 3.30749947251575 0.719999888911304)" fill="none" stroke="#8d6a1c" stroke-width="0.36" stroke-linecap="square" stroke-linejoin="bevel" d="M0 0C1.56 0.705 3.18 1.05 4.86 1.035L5.4225 0.945" sodipodi:nodetypes="ccc"/><path id="shape93" transform="matrix(6.12323302247502e-17 0.999999841054297 -0.999999841054297 6.12323302247502e-17 2.54454505183472 0.292499956498706)" fill="none" stroke="#8d6a1c" stroke-width="0.36" stroke-linecap="square" stroke-linejoin="bevel" d="M0.09 0.902045C1.335 0.272045 2.13 -0.0279545 2.475 0.00204545C1.56 0.227045 0.735 0.227045 0 0.00204545" sodipodi:nodetypes="ccc"/><path id="shape103" transform="matrix(6.12323302247502e-17 0.999999841054297 -0.999999841054297 6.12323302247502e-17 2.42999961124779 5.24249917390773)" fill="none" stroke="#8d6a1c" stroke-width="0.36" stroke-linecap="square" stroke-linejoin="bevel" d="M0 0C0.15 0.51 0.5925 0.7875 1.3275 0.8325C2.0625 0.8775 2.4225 0.9075 2.4075 0.9225" sodipodi:nodetypes="czc"/><path id="shape113" transform="matrix(6.12323302247502e-17 0.999999841054297 -0.999999841054297 6.12323302247502e-17 2.5649995899044 2.78999956164598)" fill="none" stroke="#8d6a1c" stroke-width="0.36" stroke-linecap="square" stroke-linejoin="bevel" d="M5.355 0C4.08 0.555 2.295 0.8775 0 0.9675L0.27 0.6075" sodipodi:nodetypes="ccc"/><path id="shape123" transform="matrix(6.12323302247502e-17 0.999999841054297 -0.999999841054297 6.12323302247502e-17 4.13999934089819 5.46749913833542)" fill="none" stroke="#8d6a1c" stroke-width="0.36" stroke-linecap="square" stroke-linejoin="bevel" d="M2.8125 0C2.1225 0.51 1.185 0.9 0 1.17" sodipodi:nodetypes="cc"/><path id="shape133" transform="matrix(6.12323302247502e-17 0.999999841054297 -0.999999841054297 6.12323302247502e-17 4.13999934089819 0.742499885354071)" fill="none" stroke="#8d6a1c" stroke-width="0.36" stroke-linecap="square" stroke-linejoin="bevel" d="M2.25 0C3.75 0.57 4.6575 0.8625 4.9725 0.8775C2.5725 0.8625 0.915 0.57 0 0" sodipodi:nodetypes="ccc"/><path id="shape143" transform="matrix(6.12323302247502e-17 0.999999841054297 -0.999999841054297 6.12323302247502e-17 4.13999934089819 0.179999974284864)" fill="none" stroke="#8d6a1c" stroke-width="0.36" stroke-linecap="square" stroke-linejoin="bevel" d="M5.49 0C4.545 0.99 3.42 1.4025 2.115 1.2375L2.115 1.2375C1.32 1.0725 0.615 0.7425 0 0.2475" sodipodi:nodetypes="cccc"/><path id="shape153" transform="matrix(6.12323302247502e-17 0.999999841054297 -0.999999841054297 6.12323302247502e-17 2.10705819884041 8.99999857985004)" fill="none" stroke="#8d6a1c" stroke-width="0.36" stroke-linecap="square" stroke-linejoin="bevel" d="M3.645 0.194559C2.52 -0.120441 1.59 -0.0529415 0.855 0.397059L0 0.0820585" sodipodi:nodetypes="ccc"/><path id="shape163" transform="matrix(6.12323302247502e-17 0.999999841054297 -0.999999841054297 6.12323302247502e-17 3.80249939425666 11.4524981921119)" fill="none" stroke="#8d6a1c" stroke-width="0.36" stroke-linecap="square" stroke-linejoin="bevel" d="M0.2025 0C0.4125 0.855 0.345 1.6575 0 2.4075" sodipodi:nodetypes="cc"/><path id="shape173" transform="matrix(6.12323302247502e-17 0.999999841054297 -0.999999841054297 6.12323302247502e-17 1.82249970729305 11.137498241913)" fill="none" stroke="#8d6a1c" stroke-width="0.36" stroke-linecap="square" stroke-linejoin="bevel" d="M0.09 1.8675C0.525 1.1025 0.495 0.48 0 0C0.81 0.24 1.395 0.7575 1.755 1.5525" sodipodi:nodetypes="ccc"/><path id="shape183" transform="matrix(6.12323302247502e-17 0.999999841054297 -0.999999841054297 6.12323302247502e-17 3.35249946540129 11.0699982525848)" fill="none" stroke="#8d6a1c" stroke-width="0.36" stroke-linecap="square" stroke-linejoin="bevel" d="M0.9675 3.3075C1.2525 2.5275 0.93 1.5975 0 0.5175L0 0" sodipodi:nodetypes="ccc"/><path id="shape193" transform="matrix(6.12323302247502e-17 0.999999841054297 -0.999999841054297 6.12323302247502e-17 3.26603940983156 8.86499860119343)" fill="none" stroke="#8d6a1c" stroke-width="0.36" stroke-linecap="square" stroke-linejoin="bevel" d="M0 0.116041C1.89 -0.153959 1.845 0.09354 2.115 0.386041C2.295 0.581041 2.5725 0.873541 2.9475 1.26354" sodipodi:nodetypes="czc"/><path id="shape203" transform="matrix(6.12323302247502e-17 0.999999841054297 -0.999999841054297 6.12323302247502e-17 4.13999934089819 8.79749861186513)" fill="none" stroke="#8d6a1c" stroke-width="0.36" stroke-linecap="square" stroke-linejoin="bevel" d="M0 2.3625C0.87 1.9275 1.11 1.365 0.72 0.675L0.405 0C0.84 0.735 1.305 1.17 1.8 1.305L2.8575 1.2375C2.1675 2.0325 1.7475 2.9775 1.5975 4.0725" sodipodi:nodetypes="cccccc"/><path id="shape213" transform="matrix(6.12323302247502e-17 0.999999841054297 -0.999999841054297 6.12323302247502e-17 3.82499939069943 9.24749854072049)" fill="none" stroke="#8d6a1c" stroke-width="0.36" stroke-linecap="square" stroke-linejoin="bevel" d="M0.2925 0L1.5075 1.2825C0.7125 1.9275 0.21 2.73 0 3.69" sodipodi:nodetypes="ccc"/><path id="shape223" transform="matrix(6.12323302247502e-17 0.999999841054297 -0.999999841054297 6.12323302247502e-17 2.27249963614842 12.1274980853949)" fill="none" stroke="#8d6a1c" stroke-width="0.36" stroke-linecap="square" stroke-linejoin="bevel" d="M0 0L0.27 0.8775" sodipodi:nodetypes="cc"/><path id="shape04" transform="matrix(0.999999920527145 0 0 0.999999920527145 9.1322832217556 0.724977268578923)" fill="none" stroke="#2c1f06" stroke-width="0.36" stroke-linecap="square" stroke-linejoin="bevel" d="M0 0.452355C0.286378 0.961472 0.318198 2.01153 1.20915 2.07517C2.10011 2.13881 2.32285 1.88425 2.67286 1.40695C3.02288 0.929653 2.67286 0.643274 3.43654 0.293256C4.20021 -0.0567614 4.23203 -0.0567614 4.86843 0.102338C5.50483 0.261437 5.53665 1.08875 5.53665 1.82061C5.53665 2.30851 5.75938 2.6161 6.20486 2.74338" sodipodi:nodetypes="czzzzzc"/><path id="shape14" transform="matrix(0.999999920527145 0 0 0.999999920527145 10.2141564954131 1.33643169098863)" fill="none" stroke="#2c1f06" stroke-width="0.36" stroke-linecap="square" stroke-linejoin="bevel" d="M0 0C0.46669 0.445477 1.40007 0.795495 2.80014 1.05005" sodipodi:nodetypes="cc"/><path id="shape05" transform="matrix(6.12323350910587e-17 -0.999999920527145 0.999999920527145 6.12323350910587e-17 0.72497726857892 8.50771537634323)" fill="none" stroke="#2c1f06" stroke-width="0.36" stroke-linecap="square" stroke-linejoin="bevel" d="M0 0.452355C0.286378 0.961472 0.318198 2.01153 1.20915 2.07517C2.10011 2.13881 2.32285 1.88425 2.67286 1.40695C3.02288 0.929653 2.67286 0.643274 3.43654 0.293256C4.20021 -0.0567614 4.23203 -0.0567614 4.86843 0.102338C5.50483 0.261437 5.53665 1.08875 5.53665 1.82061C5.53665 2.30851 5.75938 2.6161 6.20486 2.74338" sodipodi:nodetypes="czzzzzc"/><path id="shape15" transform="matrix(6.12323350910587e-17 -0.999999920527145 0.999999920527145 6.12323350910587e-17 1.33643169098862 7.42584210268577)" fill="none" stroke="#2c1f06" stroke-width="0.36" stroke-linecap="square" stroke-linejoin="bevel" d="M0 0C0.46669 0.445477 1.40007 0.795495 2.80014 1.05005" sodipodi:nodetypes="cc"/><path id="shape06" transform="matrix(-0.999999920527145 0 0 -0.999999920527145 8.50771537634323 16.5550213581302)" fill="none" stroke="#2c1f06" stroke-width="0.36" stroke-linecap="square" stroke-linejoin="bevel" d="M0 0.452355C0.286378 0.961472 0.318198 2.01153 1.20915 2.07517C2.10011 2.13881 2.32285 1.88425 2.67286 1.40695C3.02288 0.929653 2.67286 0.643274 3.43654 0.293256C4.20021 -0.0567614 4.23203 -0.0567614 4.86843 0.102338C5.50483 0.261437 5.53665 1.08875 5.53665 1.82061C5.53665 2.30851 5.75938 2.6161 6.20486 2.74338" sodipodi:nodetypes="czzzzzc"/><path id="shape16" transform="matrix(-0.999999920527145 0 0 -0.999999920527145 7.42584210268577 15.9435669357204)" fill="none" stroke="#2c1f06" stroke-width="0.36" stroke-linecap="square" stroke-linejoin="bevel" d="M0 0C0.46669 0.445477 1.40007 0.795495 2.80014 1.05005" sodipodi:nodetypes="cc"/><path id="shape07" transform="matrix(-1.83697005273177e-16 0.999999920527144 -0.999999920527144 -1.83697005273177e-16 16.5550213581302 7.69228333619652)" fill="none" stroke="#2c1f06" stroke-width="0.36" stroke-linecap="square" stroke-linejoin="bevel" d="M0 0.452355C0.286378 0.961472 0.318198 2.01153 1.20915 2.07517C2.10011 2.13881 2.32285 1.88425 2.67286 1.40695C3.02288 0.929653 2.67286 0.643274 3.43654 0.293256C4.20021 -0.0567614 4.23203 -0.0567614 4.86843 0.102338C5.50483 0.261437 5.53665 1.08875 5.53665 1.82061C5.53665 2.30851 5.75938 2.6161 6.20486 2.74338" sodipodi:nodetypes="czzzzzc"/><path id="shape17" transform="matrix(-1.83697005273177e-16 0.999999920527144 -0.999999920527144 -1.83697005273177e-16 15.9435669357204 8.77415660985398)" fill="none" stroke="#2c1f06" stroke-width="0.36" stroke-linecap="square" stroke-linejoin="bevel" d="M0 0C0.46669 0.445477 1.40007 0.795495 2.80014 1.05005" sodipodi:nodetypes="cc"/><path id="shape08" transform="matrix(0.999999841054297 0 0 0.999999841054297 4.31999931701152 0.584999907511975)" fill="none" stroke="#694d11" stroke-width="0.36" stroke-linecap="square" stroke-linejoin="bevel" d="M0 0C0.759134 0.12817 1.47 0.015 2.205 0.0225C3.42 0.0675 4.4475 0.21 5.2875 0.45C6.1275 0.69 6.5475 0.81 6.5475 0.81" sodipodi:nodetypes="cczc"/><path id="shape18" transform="matrix(0.999999841054297 0 0 0.999999841054297 4.34249931345428 1.07999982925288)" fill="none" stroke="#694d11" stroke-width="0.36" stroke-linecap="square" stroke-linejoin="bevel" d="M0 0.2025L1.59448 0.295643C2.55448 0.265643 3.3225 0.1125 3.7125 0.0675C4.1025 0.0225 4.2975 0 4.2975 0" sodipodi:nodetypes="cczc"/><path id="shape24" transform="matrix(0.999999841054297 0 0 0.999999841054297 4.36499930989705 1.97999968696362)" fill="none" stroke="#694d11" stroke-width="0.36" stroke-linecap="square" stroke-linejoin="bevel" d="M0 0L3.51 0C4.455 0.015 5.355 0.1125 6.21 0.2925C7.065 0.4725 7.4925 0.5625 7.4925 0.5625" sodipodi:nodetypes="cczc"/><path id="shape34" transform="matrix(0.999999841054297 0 0 0.999999841054297 4.31999931701152 2.06999967273468)" fill="none" stroke="#694d11" stroke-width="0.36" stroke-linecap="square" stroke-linejoin="bevel" d="M0 1.3725C1.21337 1.17943 2.475 1.3725 3.7125 1.3725C4.7625 1.2825 5.37 1.035 5.535 0.63C5.7 0.225 5.7825 0.015 5.7825 0" sodipodi:nodetypes="cczc"/><path id="shape44" transform="matrix(0.999999841054297 0 0 0.999999841054297 7.51499881188461 0.247499960870451)" fill="none" stroke="#694d11" stroke-width="0.36" stroke-linecap="square" stroke-linejoin="bevel" d="M0 0L0 0C0.36 0.075 0.8625 0.165 1.5075 0.27C2.1525 0.375 2.86408 0.454986 3.65908 0.379986L5.4225 0.315C6.3825 0.12 7.215 0.225 7.92 0.63C8.625 1.035 8.985 1.2375 9 1.2375" sodipodi:nodetypes="cczcczc"/><path id="shape54" transform="matrix(0.999999841054297 0 0 0.999999841054297 6.77117538287554 1.13841508717566)" fill="none" stroke="#694d11" stroke-width="0.36" stroke-linecap="square" stroke-linejoin="bevel" d="M0.00132353 0.774085C-0.0136765 0.774085 0.0988235 0.676585 0.338824 0.481585C0.698824 0.189085 0.541324 0.144085 2.38632 0.144085C3.61632 0.144085 4.82642 0.0591548 6.11642 0.0441548C6.92642 -0.0758452 7.51632 0.0615847 7.78632 0.301585C8.05632 0.541585 8.53632 0.609085 9.22632 0.504085L9.27132 0.639085" sodipodi:nodetypes="czzczcc"/><path id="shape64" transform="matrix(0.999999841054297 0 0 0.999999841054297 4.34249931345428 2.03612233329947)" fill="none" stroke="#694d11" stroke-width="0.36" stroke-linecap="square" stroke-linejoin="bevel" d="M0 0.686377L1.71515 0.763431C2.66015 0.733431 3.435 0.581377 3.87 0.416377C4.305 0.251377 4.5225 0.168877 4.5225 0.168877L8.52097 0.0394084C9.22597 -0.0505916 9.8025 0.00387717 10.1025 0.303877C10.4025 0.603877 10.5525 0.753877 10.5525 0.753877L10.5525 0.753877" sodipodi:nodetypes="cczcczcc"/><path id="shape74" transform="matrix(0.999999841054297 0 0 0.999999841054297 6.47999897551727 2.6999995731322)" fill="none" stroke="#694d11" stroke-width="0.36" stroke-linecap="square" stroke-linejoin="bevel" d="M0 0.36C0 0.36 0.3525 0.3 1.0575 0.18C1.7625 0.06 2.6775 2.96059e-16 3.8025 0L6.4575 0C6.9075 0.03 7.23 0.165 7.425 0.405C7.62 0.645 8.025 0.7125 8.64 0.6075" sodipodi:nodetypes="czcczc"/><path id="shape84" transform="matrix(0.999999841054297 0 0 0.999999841054297 6.70499893994496 2.15999965850575)" fill="none" stroke="#694d11" stroke-width="0.36" stroke-linecap="square" stroke-linejoin="bevel" d="M0 2.025C0 2.025 0.4875 1.89 1.4625 1.62C2.4375 1.35 3.27226 1.0531 3.96226 1.0981L6.255 1.26C6.96 1.26 7.3725 1.05 7.4925 0.63C7.6125 0.21 7.6725 0 7.6725 0" sodipodi:nodetypes="czcczc"/><path id="shape94" transform="matrix(0.999999841054297 0 0 0.999999841054297 15.5474975419529 2.22749964783407)" fill="none" stroke="#694d11" stroke-width="0.36" stroke-linecap="square" stroke-linejoin="bevel" d="M1.1925 2.0925L1.1925 0.6525C1.1025 0.2625 0.9 0.06 0.585 0.045C0.27 0.03 0.075 0.015 0 0" sodipodi:nodetypes="cczc"/><path id="shape104" transform="matrix(0.999999841054297 0 0 0.999999841054297 14.5349977020283 0.764999879054122)" fill="none" stroke="#694d11" stroke-width="0.36" stroke-linecap="square" stroke-linejoin="bevel" d="M1.5075 3.5775L1.485 2.34C1.32 1.5 1.035 0.9 0.63 0.54C0.225 0.18 0.015 0 0 0" sodipodi:nodetypes="cczc"/><path id="shape114" transform="matrix(0.999999841054297 0 0 0.999999841054297 15.2710690623907 1.41749977589441)" fill="none" stroke="#694d11" stroke-width="0.36" stroke-linecap="square" stroke-linejoin="bevel" d="M0.0289286 2.925L0.0289286 1.62C-0.0160714 1.26 -0.00857148 0.9 0.0514286 0.54C0.111429 0.18 0.141429 0 0.141429 0" sodipodi:nodetypes="cczc"/><path id="shape124" transform="matrix(0.999999841054297 0 0 0.999999841054297 13.8599978087452 2.87999954467435)" fill="none" stroke="#694d11" stroke-width="0.36" stroke-linecap="square" stroke-linejoin="bevel" d="M0.72 1.4625L0.6975 0.8775C0.6825 0.6525 0.5625 0.45 0.3375 0.27C0.1125 0.09 0 0 0 0" sodipodi:nodetypes="cczc"/><path id="shape134" transform="matrix(0.999999841054297 0 0 0.999999841054297 13.3649978870044 3.1949994948731)" fill="none" stroke="#694d11" stroke-width="0.36" stroke-linecap="square" stroke-linejoin="bevel" d="M0.5175 1.1475L0.5175 0.6075C0.4725 0.3825 0.375 0.225 0.225 0.135C0.075 0.045 0 0 0 0" sodipodi:nodetypes="cczc"/><path id="shape09" transform="matrix(6.12323302247502e-17 0.999999841054297 -0.999999841054297 6.12323302247502e-17 16.7731843575419 4.29749932192852)" fill="none" stroke="#694d11" stroke-width="0.36" stroke-linecap="square" stroke-linejoin="bevel" d="M0 0.055687L2.0739 0C3.2889 0.045 4.4475 0.265687 5.2875 0.505687C6.1275 0.745687 6.5475 0.865687 6.5475 0.865687" sodipodi:nodetypes="cczc"/><path id="shape19" transform="matrix(6.12323302247502e-17 0.999999841054297 -0.999999841054297 6.12323302247502e-17 16.2224974253774 4.31999931837129)" fill="none" stroke="#694d11" stroke-width="0.36" stroke-linecap="square" stroke-linejoin="bevel" d="M0 0.2025L1.66525 0.100933C2.62525 0.0709332 3.3225 0.1125 3.7125 0.0675C4.1025 0.0225 4.2975 0 4.2975 0" sodipodi:nodetypes="cczc"/><path id="shape25" transform="matrix(6.12323302247502e-17 0.999999841054297 -0.999999841054297 6.12323302247502e-17 15.4083076235326 4.34249931481405)" fill="none" stroke="#694d11" stroke-width="0.36" stroke-linecap="square" stroke-linejoin="bevel" d="M0 0.0858101C1.14587 -0.107263 2.34 0.0858101 3.51 0.0858101C4.455 0.10081 5.355 0.19831 6.21 0.37831C7.065 0.55831 7.4925 0.64831 7.4925 0.64831" sodipodi:nodetypes="cczc"/><path id="shape35" transform="matrix(6.12323302247502e-17 0.999999841054297 -0.999999841054297 6.12323302247502e-17 15.2324975818956 4.29749932192852)" fill="none" stroke="#694d11" stroke-width="0.36" stroke-linecap="square" stroke-linejoin="bevel" d="M0 1.3725C1.21337 1.20356 2.475 1.34837 3.7125 1.3725C4.7625 1.2825 5.37 1.035 5.535 0.63C5.7 0.225 5.7825 0.015 5.7825 0" sodipodi:nodetypes="cczc"/><path id="shape45" transform="matrix(6.12323302247502e-17 0.999999841054297 -0.999999841054297 6.12323302247502e-17 17.0549972937598 7.49249881680161)" fill="none" stroke="#694d11" stroke-width="0.36" stroke-linecap="square" stroke-linejoin="bevel" d="M0 0L0 0C0.36 0.075 0.8625 0.165 1.5075 0.27C2.1525 0.375 3.00725 0.525752 3.80225 0.450752L5.4225 0.315C6.3825 0.12 7.215 0.225 7.92 0.63C8.625 1.035 8.985 1.2375 9 1.2375" sodipodi:nodetypes="cczcczc"/><path id="shape55" transform="matrix(6.12323302247502e-17 0.999999841054297 -0.999999841054297 6.12323302247502e-17 16.0577544280047 6.74867538779254)" fill="none" stroke="#694d11" stroke-width="0.36" stroke-linecap="square" stroke-linejoin="bevel" d="M0.00132353 0.667757C-0.0136765 0.667757 0.0988235 0.570257 0.338824 0.375257C0.698824 0.082757 0.541324 0.037757 2.38632 0.037757C3.61632 0.037757 4.10077 0.0959947 5.39077 0.0809947C6.20077 -0.0390053 7.51632 -0.044743 7.78632 0.195257C8.05632 0.435257 8.53632 0.502757 9.22632 0.397757L9.27132 0.532757" sodipodi:nodetypes="czzczcc"/><path id="shape65" transform="matrix(6.12323302247502e-17 0.999999841054297 -0.999999841054297 6.12323302247502e-17 15.3727863020305 4.31999931837129)" fill="none" stroke="#694d11" stroke-width="0.36" stroke-linecap="square" stroke-linejoin="bevel" d="M0 0.792789L1.78592 0.723401C2.73092 0.693401 3.435 0.687789 3.87 0.522789C4.305 0.357789 4.5225 0.275289 4.5225 0.275289L8.5676 0.0235126C9.2726 -0.0664874 9.8025 0.110289 10.1025 0.410289C10.4025 0.710289 10.5525 0.860289 10.5525 0.860289L10.5525 0.860289" sodipodi:nodetypes="cczcczcc"/><path id="shape75" transform="matrix(6.12323302247502e-17 0.999999841054297 -0.999999841054297 6.12323302247502e-17 14.6024976814981 6.45749898043427)" fill="none" stroke="#694d11" stroke-width="0.36" stroke-linecap="square" stroke-linejoin="bevel" d="M0 0.36C0 0.36 0.3525 0.3 1.0575 0.18C1.7625 0.06 2.6775 2.96059e-16 3.8025 0L6.4575 0C6.9075 0.03 7.23 0.165 7.425 0.405C7.62 0.645 8.025 0.7125 8.64 0.6075" sodipodi:nodetypes="czcczc"/><path id="shape85" transform="matrix(6.12323302247502e-17 0.999999841054297 -0.999999841054297 6.12323302247502e-17 15.1424975961245 6.68249894486196)" fill="none" stroke="#694d11" stroke-width="0.36" stroke-linecap="square" stroke-linejoin="bevel" d="M0 2.025C0 2.025 0.4875 1.89 1.4625 1.62C2.4375 1.35 3.36717 1.09973 4.05717 1.14473L6.255 1.26C6.96 1.26 7.3725 1.05 7.4925 0.63C7.6125 0.21 7.6725 0 7.6725 0" sodipodi:nodetypes="czcczc"/><path id="shape95" transform="matrix(6.12323302247502e-17 0.999999841054297 -0.999999841054297 6.12323302247502e-17 15.0749976067962 15.5249975468699)" fill="none" stroke="#694d11" stroke-width="0.36" stroke-linecap="square" stroke-linejoin="bevel" d="M1.1925 2.0925L1.1925 0.6525C1.1025 0.2625 0.9 0.06 0.585 0.045C0.27 0.03 0.075 0.015 0 0" sodipodi:nodetypes="cczc"/><path id="shape105" transform="matrix(6.12323302247502e-17 0.999999841054297 -0.999999841054297 6.12323302247502e-17 16.5374973755761 14.5124977069454)" fill="none" stroke="#694d11" stroke-width="0.36" stroke-linecap="square" stroke-linejoin="bevel" d="M1.5075 3.5775L1.485 2.34C1.32 1.5 1.035 0.9 0.63 0.54C0.225 0.18 0.015 0 0 0" sodipodi:nodetypes="cczc"/><path id="shape115" transform="matrix(6.12323302247502e-17 0.999999841054297 -0.999999841054297 6.12323302247502e-17 15.8849974787359 15.2485690673077)" fill="none" stroke="#694d11" stroke-width="0.36" stroke-linecap="square" stroke-linejoin="bevel" d="M0.0289286 2.925L0.0289286 1.62C-0.0160714 1.26 -0.00857148 0.9 0.0514286 0.54C0.111429 0.18 0.141429 0 0.141429 0" sodipodi:nodetypes="cczc"/><path id="shape125" transform="matrix(6.12323302247502e-17 0.999999841054297 -0.999999841054297 6.12323302247502e-17 14.4224977099559 13.8374978136623)" fill="none" stroke="#694d11" stroke-width="0.36" stroke-linecap="square" stroke-linejoin="bevel" d="M0.72 1.4625L0.6975 0.8775C0.6825 0.6525 0.5625 0.45 0.3375 0.27C0.1125 0.09 0 0 0 0" sodipodi:nodetypes="cczc"/><path id="shape135" transform="matrix(6.12323302247502e-17 0.999999841054297 -0.999999841054297 6.12323302247502e-17 14.1074977597572 13.3424978919213)" fill="none" stroke="#694d11" stroke-width="0.36" stroke-linecap="square" stroke-linejoin="bevel" d="M0.5175 1.1475L0.5175 0.6075C0.4725 0.3825 0.375 0.225 0.225 0.135C0.075 0.045 0 0 0 0" sodipodi:nodetypes="cczc"/><path id="shape010" transform="matrix(-0.999999841054297 0 0 -0.999999841054297 12.9599979364067 16.6949973459063)" fill="none" stroke="#694d11" stroke-width="0.36" stroke-linecap="square" stroke-linejoin="bevel" d="M0 0L2.1962 0.0907516C3.4112 0.135752 4.4475 0.21 5.2875 0.45C6.1275 0.69 6.5475 0.81 6.5475 0.81" sodipodi:nodetypes="cczc"/><path id="shape110" transform="matrix(-0.999999841054297 0 0 -0.999999841054297 12.937497939964 16.1999974241654)" fill="none" stroke="#694d11" stroke-width="0.36" stroke-linecap="square" stroke-linejoin="bevel" d="M0 0.2025L1.66688 0.0784332C2.62688 0.0484332 3.3225 0.1125 3.7125 0.0675C4.1025 0.0225 4.2975 0 4.2975 0" sodipodi:nodetypes="cczc"/><path id="shape26" transform="matrix(-0.999999841054297 0 0 -0.999999841054297 12.8393296089385 15.4458100558659)" fill="none" stroke="#694d11" stroke-width="0.36" stroke-linecap="square" stroke-linejoin="bevel" d="M0 0L3.43433 0.145813C4.37933 0.160813 5.27933 0.258313 6.13433 0.438313C6.98933 0.618313 7.41683 0.708313 7.41683 0.708313" sodipodi:nodetypes="cczc"/><path id="shape36" transform="matrix(-0.999999841054297 0 0 -0.999999841054297 12.9599979364067 15.2099975806836)" fill="none" stroke="#694d11" stroke-width="0.36" stroke-linecap="square" stroke-linejoin="bevel" d="M0 1.3725C1.59401 1.10766 2.5 1.10312 3.7125 1.3725C4.7625 1.2825 5.37 1.035 5.535 0.63C5.7 0.225 5.7825 0.015 5.7825 0" sodipodi:nodetypes="cczc"/><path id="shape46" transform="matrix(-0.999999841054297 0 0 -0.999999841054297 9.76499844153363 17.0324972925478)" fill="none" stroke="#694d11" stroke-width="0.36" stroke-linecap="square" stroke-linejoin="bevel" d="M0 0L0 0C0.36 0.075 0.8625 0.165 1.5075 0.27C2.1525 0.375 2.81581 0.479117 3.61081 0.404117L5.4225 0.315C6.3825 0.12 7.215 0.225 7.92 0.63C8.625 1.035 8.985 1.2375 9 1.2375" sodipodi:nodetypes="cczcczc"/><path id="shape56" transform="matrix(-0.999999841054297 0 0 -0.999999841054297 10.5088218705426 15.9974974562503)" fill="none" stroke="#694d11" stroke-width="0.36" stroke-linecap="square" stroke-linejoin="bevel" d="M0.00132353 0.63C-0.0136765 0.63 0.0988235 0.5325 0.338824 0.3375C0.698824 0.045 0.541324 0 2.38632 0C3.61632 0 4.77815 0.132274 6.06815 0.117274C6.87815 -0.00272599 7.51632 -0.0825 7.78632 0.1575C8.05632 0.3975 8.53632 0.465 9.22632 0.36L9.27132 0.495" sodipodi:nodetypes="czzczcc"/><path id="shape66" transform="matrix(-0.999999841054297 0 0 -0.999999841054297 12.937497939964 15.2861515895813)" fill="none" stroke="#694d11" stroke-width="0.36" stroke-linecap="square" stroke-linejoin="bevel" d="M0 0.728654L1.83582 0.805705C2.78082 0.775705 3.435 0.623654 3.87 0.458654C4.305 0.293654 4.5225 0.211154 4.5225 0.211154L8.595 0.0311538C9.3 -0.0588462 9.8025 0.0461538 10.1025 0.346154C10.4025 0.646154 10.5525 0.796154 10.5525 0.796154L10.5525 0.796154" sodipodi:nodetypes="cczcczcc"/><path id="shape76" transform="matrix(-0.999999841054297 0 0 -0.999999841054297 10.799998277901 14.6735195530726)" fill="none" stroke="#694d11" stroke-width="0.36" stroke-linecap="square" stroke-linejoin="bevel" d="M0 0.453522C0 0.453522 0.3525 0.393522 1.0575 0.273522C1.7625 0.153522 2.6775 0.0935219 3.8025 0.0935219L6.45587 0C6.90587 0.03 7.23 0.258522 7.425 0.498522C7.62 0.738522 8.025 0.806022 8.64 0.701022" sodipodi:nodetypes="czcczc"/><path id="shape86" transform="matrix(-0.999999841054297 0 0 -0.999999841054297 10.5749983134733 15.1199975949125)" fill="none" stroke="#694d11" stroke-width="0.36" stroke-linecap="square" stroke-linejoin="bevel" d="M0 2.025C0 2.025 0.4875 1.89 1.4625 1.62C2.4375 1.35 3.27 1.2375 3.96 1.2825L6.255 1.19463C6.96 1.19463 7.3725 1.05 7.4925 0.63C7.6125 0.21 7.6725 0 7.6725 0" sodipodi:nodetypes="czcczc"/><path id="shape96" transform="matrix(-0.999999841054297 0 0 -0.999999841054297 1.73249971146533 15.0524976055842)" fill="none" stroke="#694d11" stroke-width="0.36" stroke-linecap="square" stroke-linejoin="bevel" d="M1.1925 2.0925L1.1925 0.6525C1.1025 0.2625 0.9 0.06 0.585 0.045C0.27 0.03 0.075 0.015 0 0" sodipodi:nodetypes="cczc"/><path id="shape106" transform="matrix(-0.999999841054297 0 0 -0.999999841054297 2.74499955138991 16.5149973743641)" fill="none" stroke="#694d11" stroke-width="0.36" stroke-linecap="square" stroke-linejoin="bevel" d="M1.5075 3.5775L1.485 2.34C1.32 1.5 1.035 0.9 0.63 0.54C0.225 0.18 0.015 0 0 0" sodipodi:nodetypes="cczc"/><path id="shape116" transform="matrix(-0.999999841054297 0 0 -0.999999841054297 2.00892819102753 15.8624974775239)" fill="none" stroke="#694d11" stroke-width="0.36" stroke-linecap="square" stroke-linejoin="bevel" d="M0.0289286 2.925L0.0289286 1.62C-0.0160714 1.26 -0.00857148 0.9 0.0514286 0.54C0.111429 0.18 0.141429 0 0.141429 0" sodipodi:nodetypes="cczc"/><path id="shape126" transform="matrix(-0.999999841054297 0 0 -0.999999841054297 3.41999944467296 14.3999977087439)" fill="none" stroke="#694d11" stroke-width="0.36" stroke-linecap="square" stroke-linejoin="bevel" d="M0.72 1.4625L0.6975 0.8775C0.6825 0.6525 0.5625 0.45 0.3375 0.27C0.1125 0.09 0 0 0 0" sodipodi:nodetypes="cczc"/><path id="shape136" transform="matrix(-0.999999841054297 0 0 -0.999999841054297 3.91499936641386 14.0849977585452)" fill="none" stroke="#694d11" stroke-width="0.36" stroke-linecap="square" stroke-linejoin="bevel" d="M0.5175 1.1475L0.5175 0.6075C0.4725 0.3825 0.375 0.225 0.225 0.135C0.075 0.045 0 0 0 0" sodipodi:nodetypes="cczc"/><path id="shape011" transform="matrix(6.12323302247502e-17 -0.999999841054297 0.999999841054297 6.12323302247502e-17 0.539999914474059 12.9599979365591)" fill="none" stroke="#694d11" stroke-width="0.36" stroke-linecap="square" stroke-linejoin="bevel" d="M0 0L2.1962 0.11162C3.4112 0.15662 4.4475 0.21 5.2875 0.45C6.1275 0.69 6.5475 0.81 6.5475 0.81" sodipodi:nodetypes="cczc"/><path id="shape111" transform="matrix(6.12323302247502e-17 -0.999999841054297 0.999999841054297 6.12323302247502e-17 1.03499983621497 12.9374979401164)" fill="none" stroke="#694d11" stroke-width="0.36" stroke-linecap="square" stroke-linejoin="bevel" d="M0 0.2025L1.61862 0.292375C2.57862 0.262375 3.3225 0.1125 3.7125 0.0675C4.1025 0.0225 4.2975 0 4.2975 0" sodipodi:nodetypes="cczc"/><path id="shape27" transform="matrix(6.12323302247502e-17 -0.999999841054297 0.999999841054297 6.12323302247502e-17 1.93499969392569 12.9149979436735)" fill="none" stroke="#694d11" stroke-width="0.36" stroke-linecap="square" stroke-linejoin="bevel" d="M0 0L3.45444 0.0922629C4.39944 0.107263 5.355 0.1125 6.21 0.2925C7.065 0.4725 7.4925 0.5625 7.4925 0.5625" sodipodi:nodetypes="cczc"/><path id="shape37" transform="matrix(6.12323302247502e-17 -0.999999841054297 0.999999841054297 6.12323302247502e-17 2.02499967969677 12.9599979365591)" fill="none" stroke="#694d11" stroke-width="0.36" stroke-linecap="square" stroke-linejoin="bevel" d="M0 1.3725C1.2375 1.27596 2.475 1.27596 3.7125 1.3725C4.7625 1.2825 5.37 1.035 5.535 0.63C5.7 0.225 5.7825 0.015 5.7825 0" sodipodi:nodetypes="cczc"/><path id="shape47" transform="matrix(6.12323302247502e-17 -0.999999841054297 0.999999841054297 6.12323302247502e-17 0.202499967832535 9.76499844168599)" fill="none" stroke="#694d11" stroke-width="0.36" stroke-linecap="square" stroke-linejoin="bevel" d="M0 0L0 0C0.36 0.075 0.8625 0.165 1.5075 0.27C2.1525 0.375 2.93648 0.572388 3.73148 0.497388L5.4225 0.315C6.3825 0.12 7.215 0.225 7.92 0.63C8.625 1.035 8.985 1.2375 9 1.2375" sodipodi:nodetypes="cczcczc"/><path id="shape57" transform="matrix(6.12323302247502e-17 -0.999999841054297 0.999999841054297 6.12323302247502e-17 1.23749980413005 10.508821870695)" fill="none" stroke="#694d11" stroke-width="0.36" stroke-linecap="square" stroke-linejoin="bevel" d="M0.00132353 0.63C-0.0136765 0.63 0.0988235 0.5325 0.338824 0.3375C0.698824 0.045 0.541324 0 2.38632 0C3.61632 0 4.75402 0.177277 6.04402 0.162277C6.85402 0.0422768 7.51632 -0.0825 7.78632 0.1575C8.05632 0.3975 8.53632 0.465 9.22632 0.36L9.27132 0.495" sodipodi:nodetypes="czzczcc"/><path id="shape67" transform="matrix(6.12323302247502e-17 -0.999999841054297 0.999999841054297 6.12323302247502e-17 1.90520333556944 12.9374979401164)" fill="none" stroke="#694d11" stroke-width="0.36" stroke-linecap="square" stroke-linejoin="bevel" d="M0 0.772296L1.71515 0.942618C2.66015 0.912618 3.435 0.667296 3.87 0.502296C4.305 0.337296 4.5225 0.254796 4.5225 0.254796L8.49683 0.0255229C9.20183 -0.0644771 9.8025 0.0897962 10.1025 0.389796C10.4025 0.689796 10.5525 0.839796 10.5525 0.839796L10.5525 0.839796" sodipodi:nodetypes="cczcczcc"/><path id="shape77" transform="matrix(6.12323302247502e-17 -0.999999841054297 0.999999841054297 6.12323302247502e-17 2.65499958009428 10.7999982780533)" fill="none" stroke="#694d11" stroke-width="0.36" stroke-linecap="square" stroke-linejoin="bevel" d="M0 0.36C0 0.36 0.3525 0.3 1.0575 0.18C1.7625 0.06 2.6775 2.96059e-16 3.8025 0L6.4575 0C6.9075 0.03 7.23 0.165 7.425 0.405C7.62 0.645 8.025 0.7125 8.64 0.6075" sodipodi:nodetypes="czcczc"/><path id="shape87" transform="matrix(6.12323302247502e-17 -0.999999841054297 0.999999841054297 6.12323302247502e-17 2.11499966546783 10.5749983136257)" fill="none" stroke="#694d11" stroke-width="0.36" stroke-linecap="square" stroke-linejoin="bevel" d="M0 2.025C0 2.025 0.4875 1.89 1.4625 1.62C2.4375 1.35 3.27226 1.0981 3.96226 1.1431L6.255 1.26C6.96 1.26 7.3725 1.05 7.4925 0.63C7.6125 0.21 7.6725 0 7.6725 0" sodipodi:nodetypes="czcczc"/><path id="shape97" transform="matrix(6.12323302247502e-17 -0.999999841054297 0.999999841054297 6.12323302247502e-17 2.18249965479615 1.73249971161771)" fill="none" stroke="#694d11" stroke-width="0.36" stroke-linecap="square" stroke-linejoin="bevel" d="M1.1925 2.0925L1.1925 0.6525C1.1025 0.2625 0.9 0.06 0.585 0.045C0.27 0.03 0.075 0.015 0 0" sodipodi:nodetypes="cczc"/><path id="shape107" transform="matrix(6.12323302247502e-17 -0.999999841054297 0.999999841054297 6.12323302247502e-17 0.719999886016207 2.74499955154229)" fill="none" stroke="#694d11" stroke-width="0.36" stroke-linecap="square" stroke-linejoin="bevel" d="M1.5075 3.5775L1.485 2.34C1.32 1.5 1.035 0.9 0.63 0.54C0.225 0.18 0.015 0 0 0" sodipodi:nodetypes="cczc"/><path id="shape117" transform="matrix(6.12323302247502e-17 -0.999999841054297 0.999999841054297 6.12323302247502e-17 1.37249978285649 2.00892819117991)" fill="none" stroke="#694d11" stroke-width="0.36" stroke-linecap="square" stroke-linejoin="bevel" d="M0.0289286 2.925L0.0289286 1.62C-0.0160714 1.26 -0.00857148 0.9 0.0514286 0.54C0.111429 0.18 0.141429 0 0.141429 0" sodipodi:nodetypes="cczc"/><path id="shape127" transform="matrix(6.12323302247502e-17 -0.999999841054297 0.999999841054297 6.12323302247502e-17 2.83499955163643 3.41999944482534)" fill="none" stroke="#694d11" stroke-width="0.36" stroke-linecap="square" stroke-linejoin="bevel" d="M0.72 1.4625L0.6975 0.8775C0.6825 0.6525 0.5625 0.45 0.3375 0.27C0.1125 0.09 0 0 0 0" sodipodi:nodetypes="cczc"/><path id="shape137" transform="matrix(6.12323302247502e-17 -0.999999841054297 0.999999841054297 6.12323302247502e-17 3.14999950183519 3.91499936656624)" fill="none" stroke="#694d11" stroke-width="0.36" stroke-linecap="square" stroke-linejoin="bevel" d="M0.5175 1.1475L0.5175 0.6075C0.4725 0.3825 0.375 0.225 0.225 0.135C0.075 0.045 0 0 0 0" sodipodi:nodetypes="cczc"/>
</svg>
