<?xml version="1.0" standalone="no"?>
<!DOCTYPE svg PUBLIC "-//W3C//DTD SVG 20010904//EN" "http://www.w3.org/TR/2001/REC-SVG-20010904/DTD/svg10.dtd">
<!-- Created using Krita: https://krita.org -->
<svg xmlns="http://www.w3.org/2000/svg" 
    xmlns:xlink="http://www.w3.org/1999/xlink"
    xmlns:krita="http://krita.org/namespaces/svg/krita"
    xmlns:sodipodi="http://sodipodi.sourceforge.net/DTD/sodipodi-0.dtd"
    width="48"
    height="48"
    viewBox="0 0 17.28 17.28">
<defs/>
<path id="shape0" transform="translate(6.32250000535211, 2.23651409777507)" fill="none" stroke="#8d6a1c" stroke-width="0.36" stroke-linecap="square" stroke-linejoin="bevel" d="M6.0075 0.823486C4.9275 0.800986 4.365 -0.121514 2.3175 0.0134859C0.9525 0.103486 0.2025 0.320986 0.0675 0.665986L0 0.710986" sodipodi:nodetypes="czcc"/><path id="shape1" transform="translate(5.89500000499022, 0.894000000756787)" fill="none" stroke="#8d6a1c" stroke-width="0.36" stroke-linecap="square" stroke-linejoin="bevel" d="M6.5475 0.0285C5.175 0.7485 4.275 1.1985 3.375 0.4335C2.775 -0.0765 1.65 -0.1365 0 0.2535" sodipodi:nodetypes="czc"/><path id="shape2" transform="translate(7.35750000622826, 3.00150000254082)" fill="none" stroke="#8d6a1c" stroke-width="0.36" stroke-linecap="square" stroke-linejoin="bevel" d="M2.34 0.0585C1.635 -0.1365 0.855 0.156 0 0.936" sodipodi:nodetypes="cc"/><path id="shape3" transform="translate(8.32500000704726, 0)" fill="none" stroke="#8d6a1c" stroke-width="0.36" stroke-linecap="square" stroke-linejoin="bevel" d="M3.2175 0C2.8275 0.63 2.19 1.1625 1.305 1.5975L0 2.4525" sodipodi:nodetypes="ccc"/><path id="shape4" transform="translate(4.59000000388552, 2.60897727493582)" fill="none" stroke="#8d6a1c" stroke-width="0.36" stroke-linecap="square" stroke-linejoin="bevel" d="M0 0.518523C1.26 -0.0664773 2.4 -0.156477 3.42 0.248523" sodipodi:nodetypes="cc"/><path id="shape5" transform="translate(6.88500000582828, 2.86981132318406)" fill="none" stroke="#8d6a1c" stroke-width="0.36" stroke-linecap="square" stroke-linejoin="bevel" d="M0 0.550189C1.635 0.0101887 3.2475 -0.132311 4.8375 0.122689" sodipodi:nodetypes="cc"/><path id="shape6" transform="translate(9.45000000799959, 2.27250000192371)" fill="none" stroke="#8d6a1c" stroke-width="0.36" stroke-linecap="square" stroke-linejoin="bevel" d="M3.3075 0C2.2875 0.765 1.185 1.32 0 1.665" sodipodi:nodetypes="cc"/><path id="shape7" transform="translate(5.53500000468548, 0)" fill="none" stroke="#8d6a1c" stroke-width="0.36" stroke-linecap="square" stroke-linejoin="bevel" d="M3.69 0C2.0925 1.1025 2.16 0.7425 1.2375 1.0575C0.6225 1.2675 0.21 1.35 0 1.305" sodipodi:nodetypes="czc"/><path id="shape8" transform="translate(5.10750000432359, 0.832500000704726)" fill="none" stroke="#8d6a1c" stroke-width="0.36" stroke-linecap="square" stroke-linejoin="bevel" d="M0 0C1.56 0.705 3.18 1.05 4.86 1.035L5.4225 0.945" sodipodi:nodetypes="ccc"/><path id="shape9" transform="translate(4.6800000039617, 1.59545454680513)" fill="none" stroke="#8d6a1c" stroke-width="0.36" stroke-linecap="square" stroke-linejoin="bevel" d="M0.09 0.902045C1.335 0.272045 2.13 -0.0279545 2.475 0.00204545C1.56 0.227045 0.735 0.227045 0 0.00204545" sodipodi:nodetypes="ccc"/><path id="shape10" transform="translate(9.63000000815197, 1.71000000144755)" fill="none" stroke="#8d6a1c" stroke-width="0.36" stroke-linecap="square" stroke-linejoin="bevel" d="M0 0C0.15 0.51 0.5925 0.7875 1.3275 0.8325C2.0625 0.8775 2.4225 0.9075 2.4075 0.9225" sodipodi:nodetypes="czc"/><path id="shape11" transform="translate(7.17750000607588, 1.57500000133327)" fill="none" stroke="#8d6a1c" stroke-width="0.36" stroke-linecap="square" stroke-linejoin="bevel" d="M5.355 0C4.08 0.555 2.295 0.8775 0 0.9675L0.27 0.6075" sodipodi:nodetypes="ccc"/><path id="shape12" transform="translate(9.85500000834243, 0)" fill="none" stroke="#8d6a1c" stroke-width="0.36" stroke-linecap="square" stroke-linejoin="bevel" d="M2.8125 0C2.1225 0.51 1.185 0.9 0 1.17" sodipodi:nodetypes="cc"/><path id="shape13" transform="translate(5.13000000434264, 0)" fill="none" stroke="#8d6a1c" stroke-width="0.36" stroke-linecap="square" stroke-linejoin="bevel" d="M2.25 0C3.75 0.57 4.6575 0.8625 4.9725 0.8775C2.5725 0.8625 0.915 0.57 0 0" sodipodi:nodetypes="ccc"/><path id="shape14" transform="translate(4.56750000386647, 0)" fill="none" stroke="#8d6a1c" stroke-width="0.36" stroke-linecap="square" stroke-linejoin="bevel" d="M5.49 0C4.545 0.99 3.42 1.4025 2.115 1.2375L2.115 1.2375C1.32 1.0725 0.615 0.7425 0 0.2475" sodipodi:nodetypes="cccc"/><path id="shape15" transform="translate(13.3875000113328, 2.03294117819151)" fill="none" stroke="#8d6a1c" stroke-width="0.36" stroke-linecap="square" stroke-linejoin="bevel" d="M3.645 0.194559C2.52 -0.120441 1.59 -0.0529412 0.855 0.397059L0 0.0820588" sodipodi:nodetypes="ccc"/><path id="shape16" transform="translate(15.8400000134088, 0.3375000002857)" fill="none" stroke="#8d6a1c" stroke-width="0.36" stroke-linecap="square" stroke-linejoin="bevel" d="M0.2025 0C0.4125 0.855 0.345 1.6575 0 2.4075" sodipodi:nodetypes="cc"/><path id="shape17" transform="translate(15.5250000131422, 2.31750000196181)" fill="none" stroke="#8d6a1c" stroke-width="0.36" stroke-linecap="square" stroke-linejoin="bevel" d="M0.09 1.8675C0.525 1.1025 0.495 0.48 0 0C0.81 0.24 1.395 0.7575 1.755 1.5525" sodipodi:nodetypes="ccc"/><path id="shape18" transform="translate(15.4575000130851, 0.787500000666633)" fill="none" stroke="#8d6a1c" stroke-width="0.36" stroke-linecap="square" stroke-linejoin="bevel" d="M0.9675 3.3075C1.2525 2.5275 0.93 1.5975 0 0.5175L0 0" sodipodi:nodetypes="ccc"/><path id="shape19" transform="translate(13.2525000112185, 0.873959306591371)" fill="none" stroke="#8d6a1c" stroke-width="0.36" stroke-linecap="square" stroke-linejoin="bevel" d="M0 0.116041C1.89 -0.153959 1.845 0.0935407 2.115 0.386041C2.295 0.581041 2.5725 0.873541 2.9475 1.26354" sodipodi:nodetypes="czc"/><path id="shape20" transform="translate(13.1850000111613, 0)" fill="none" stroke="#8d6a1c" stroke-width="0.36" stroke-linecap="square" stroke-linejoin="bevel" d="M0 2.3625C0.87 1.9275 1.11 1.365 0.72 0.675L0.405 0C0.84 0.735 1.305 1.17 1.8 1.305L2.8575 1.2375C2.1675 2.0325 1.7475 2.9775 1.5975 4.0725" sodipodi:nodetypes="cccccc"/><path id="shape21" transform="translate(13.6350000115423, 0.315000000266653)" fill="none" stroke="#8d6a1c" stroke-width="0.36" stroke-linecap="square" stroke-linejoin="bevel" d="M0.2925 0L1.5075 1.2825C0.7125 1.9275 0.21 2.73 0 3.69" sodipodi:nodetypes="ccc"/><path id="shape22" transform="translate(16.5150000139802, 1.86750000158087)" fill="none" stroke="#8d6a1c" stroke-width="0.36" stroke-linecap="square" stroke-linejoin="bevel" d="M0 0L0.27 0.8775" sodipodi:nodetypes="cc"/><path id="shape23" transform="matrix(6.12323399573676e-17 1 -1 6.12323399573676e-17 14.7959858916465 6.18749999958207)" fill="none" stroke="#8d6a1c" stroke-width="0.36" stroke-linecap="square" stroke-linejoin="bevel" d="M6.0075 0.823486C4.9275 0.800986 4.365 -0.121514 2.3175 0.0134859C0.9525 0.103486 0.2025 0.320986 0.0675 0.665986L0 0.710986" sodipodi:nodetypes="czcc"/><path id="shape24" transform="matrix(6.12323399573676e-17 1 -1 6.12323399573676e-17 16.1384999886648 5.75999999922018)" fill="none" stroke="#8d6a1c" stroke-width="0.36" stroke-linecap="square" stroke-linejoin="bevel" d="M6.5475 0.0285C5.175 0.7485 4.275 1.1985 3.375 0.4335C2.775 -0.0765 1.65 -0.1365 0 0.2535" sodipodi:nodetypes="czc"/><path id="shape25" transform="matrix(6.12323399573676e-17 1 -1 6.12323399573676e-17 14.0309999868808 7.22250000045821)" fill="none" stroke="#8d6a1c" stroke-width="0.36" stroke-linecap="square" stroke-linejoin="bevel" d="M2.34 0.0585C1.635 -0.1365 0.855 0.156 0 0.936" sodipodi:nodetypes="cc"/><path id="shape26" transform="matrix(6.12323399573676e-17 1 -1 6.12323399573676e-17 17.0324999894216 8.19000000127722)" fill="none" stroke="#8d6a1c" stroke-width="0.36" stroke-linecap="square" stroke-linejoin="bevel" d="M3.2175 0C2.8275 0.63 2.19 1.1625 1.305 1.5975L0 2.4525" sodipodi:nodetypes="ccc"/><path id="shape27" transform="matrix(6.12323399573676e-17 1 -1 6.12323399573676e-17 14.4235227144858 4.45499999811548)" fill="none" stroke="#8d6a1c" stroke-width="0.36" stroke-linecap="square" stroke-linejoin="bevel" d="M0 0.518523C1.26 -0.0664773 2.4 -0.156477 3.42 0.248523" sodipodi:nodetypes="cc"/><path id="shape28" transform="matrix(6.12323399573676e-17 1 -1 6.12323399573676e-17 14.1626886662375 6.75000000005824)" fill="none" stroke="#8d6a1c" stroke-width="0.36" stroke-linecap="square" stroke-linejoin="bevel" d="M0 0.550189C1.635 0.0101887 3.2475 -0.132311 4.8375 0.122689" sodipodi:nodetypes="cc"/><path id="shape29" transform="matrix(6.12323399573676e-17 1 -1 6.12323399573676e-17 14.7599999874979 9.31500000222955)" fill="none" stroke="#8d6a1c" stroke-width="0.36" stroke-linecap="square" stroke-linejoin="bevel" d="M3.3075 0C2.2875 0.765 1.185 1.32 0 1.665" sodipodi:nodetypes="cc"/><path id="shape30" transform="matrix(6.12323399573676e-17 1 -1 6.12323399573676e-17 17.0324999894216 5.39999999891544)" fill="none" stroke="#8d6a1c" stroke-width="0.36" stroke-linecap="square" stroke-linejoin="bevel" d="M3.69 0C2.0925 1.1025 2.16 0.7425 1.2375 1.0575C0.6225 1.2675 0.21 1.35 0 1.305" sodipodi:nodetypes="czc"/><path id="shape31" transform="matrix(6.12323399573676e-17 1 -1 6.12323399573676e-17 16.1999999887169 4.97249999855355)" fill="none" stroke="#8d6a1c" stroke-width="0.36" stroke-linecap="square" stroke-linejoin="bevel" d="M0 0C1.56 0.705 3.18 1.05 4.86 1.035L5.4225 0.945" sodipodi:nodetypes="ccc"/><path id="shape32" transform="matrix(6.12323399573676e-17 1 -1 6.12323399573676e-17 15.4370454426165 4.54499999819166)" fill="none" stroke="#8d6a1c" stroke-width="0.36" stroke-linecap="square" stroke-linejoin="bevel" d="M0.09 0.902045C1.335 0.272045 2.13 -0.0279545 2.475 0.00204545C1.56 0.227045 0.735 0.227045 0 0.00204545" sodipodi:nodetypes="ccc"/><path id="shape33" transform="matrix(6.12323399573676e-17 1 -1 6.12323399573676e-17 15.3224999879741 9.49500000238193)" fill="none" stroke="#8d6a1c" stroke-width="0.36" stroke-linecap="square" stroke-linejoin="bevel" d="M0 0C0.15 0.51 0.5925 0.7875 1.3275 0.8325C2.0625 0.8775 2.4225 0.9075 2.4075 0.9225" sodipodi:nodetypes="czc"/><path id="shape34" transform="matrix(6.12323399573676e-17 1 -1 6.12323399573676e-17 15.4574999880883 7.04250000030584)" fill="none" stroke="#8d6a1c" stroke-width="0.36" stroke-linecap="square" stroke-linejoin="bevel" d="M5.355 0C4.08 0.555 2.295 0.8775 0 0.9675L0.27 0.6075" sodipodi:nodetypes="ccc"/><path id="shape35" transform="matrix(6.12323399573676e-17 1 -1 6.12323399573676e-17 17.0324999894216 9.72000000257239)" fill="none" stroke="#8d6a1c" stroke-width="0.36" stroke-linecap="square" stroke-linejoin="bevel" d="M2.8125 0C2.1225 0.51 1.185 0.9 0 1.17" sodipodi:nodetypes="cc"/><path id="shape36" transform="matrix(6.12323399573676e-17 1 -1 6.12323399573676e-17 17.0324999894216 4.9949999985726)" fill="none" stroke="#8d6a1c" stroke-width="0.36" stroke-linecap="square" stroke-linejoin="bevel" d="M2.25 0C3.75 0.57 4.6575 0.8625 4.9725 0.8775C2.5725 0.8625 0.915 0.57 0 0" sodipodi:nodetypes="ccc"/><path id="shape37" transform="matrix(6.12323399573676e-17 1 -1 6.12323399573676e-17 17.0324999894216 4.43249999809643)" fill="none" stroke="#8d6a1c" stroke-width="0.36" stroke-linecap="square" stroke-linejoin="bevel" d="M5.49 0C4.545 0.99 3.42 1.4025 2.115 1.2375L2.115 1.2375C1.32 1.0725 0.615 0.7425 0 0.2475" sodipodi:nodetypes="cccc"/><path id="shape38" transform="matrix(6.12323399573676e-17 1 -1 6.12323399573676e-17 14.9995588112301 13.2525000055627)" fill="none" stroke="#8d6a1c" stroke-width="0.36" stroke-linecap="square" stroke-linejoin="bevel" d="M3.645 0.194559C2.52 -0.120441 1.59 -0.0529412 0.855 0.397059L0 0.0820588" sodipodi:nodetypes="ccc"/><path id="shape39" transform="matrix(6.12323399573676e-17 1 -1 6.12323399573676e-17 16.6949999891359 15.7050000076388)" fill="none" stroke="#8d6a1c" stroke-width="0.36" stroke-linecap="square" stroke-linejoin="bevel" d="M0.2025 0C0.4125 0.855 0.345 1.6575 0 2.4075" sodipodi:nodetypes="cc"/><path id="shape40" transform="matrix(6.12323399573676e-17 1 -1 6.12323399573676e-17 14.7149999874598 15.3900000073721)" fill="none" stroke="#8d6a1c" stroke-width="0.36" stroke-linecap="square" stroke-linejoin="bevel" d="M0.09 1.8675C0.525 1.1025 0.495 0.48 0 0C0.81 0.24 1.395 0.7575 1.755 1.5525" sodipodi:nodetypes="ccc"/><path id="shape41" transform="matrix(6.12323399573676e-17 1 -1 6.12323399573676e-17 16.244999988755 15.322500007315)" fill="none" stroke="#8d6a1c" stroke-width="0.36" stroke-linecap="square" stroke-linejoin="bevel" d="M0.9675 3.3075C1.2525 2.5275 0.93 1.5975 0 0.5175L0 0" sodipodi:nodetypes="ccc"/><path id="shape42" transform="matrix(6.12323399573676e-17 1 -1 6.12323399573676e-17 16.1585406828302 13.1175000054484)" fill="none" stroke="#8d6a1c" stroke-width="0.36" stroke-linecap="square" stroke-linejoin="bevel" d="M0 0.116041C1.89 -0.153959 1.845 0.0935407 2.115 0.386041C2.295 0.581041 2.5725 0.873541 2.9475 1.26354" sodipodi:nodetypes="czc"/><path id="shape43" transform="matrix(6.12323399573676e-17 1 -1 6.12323399573676e-17 17.0324999894216 13.0500000053913)" fill="none" stroke="#8d6a1c" stroke-width="0.36" stroke-linecap="square" stroke-linejoin="bevel" d="M0 2.3625C0.87 1.9275 1.11 1.365 0.72 0.675L0.405 0C0.84 0.735 1.305 1.17 1.8 1.305L2.8575 1.2375C2.1675 2.0325 1.7475 2.9775 1.5975 4.0725" sodipodi:nodetypes="cccccc"/><path id="shape44" transform="matrix(6.12323399573676e-17 1 -1 6.12323399573676e-17 16.7174999891549 13.5000000057722)" fill="none" stroke="#8d6a1c" stroke-width="0.36" stroke-linecap="square" stroke-linejoin="bevel" d="M0.2925 0L1.5075 1.2825C0.7125 1.9275 0.21 2.73 0 3.69" sodipodi:nodetypes="ccc"/><path id="shape45" transform="matrix(6.12323399573676e-17 1 -1 6.12323399573676e-17 15.1649999878407 16.3800000082102)" fill="none" stroke="#8d6a1c" stroke-width="0.36" stroke-linecap="square" stroke-linejoin="bevel" d="M0 0L0.27 0.8775" sodipodi:nodetypes="cc"/><path id="shape46" transform="matrix(-1 0 0 -1 11.2220405804967 14.9639363904323)" fill="none" stroke="#8d6a1c" stroke-width="0.36" stroke-linecap="square" stroke-linejoin="bevel" d="M6.0075 0.823486C4.9275 0.800986 4.365 -0.121514 2.3175 0.0134859C0.9525 0.103486 0.2025 0.320986 0.0675 0.665986L0 0.710986" sodipodi:nodetypes="czcc"/><path id="shape47" transform="matrix(-1 0 0 -1 11.6495405808586 16.3064504874505)" fill="none" stroke="#8d6a1c" stroke-width="0.36" stroke-linecap="square" stroke-linejoin="bevel" d="M6.5475 0.0285C5.175 0.7485 4.275 1.1985 3.375 0.4335C2.775 -0.0765 1.65 -0.1365 0 0.2535" sodipodi:nodetypes="czc"/><path id="shape48" transform="matrix(-1 0 0 -1 10.1870405796205 14.1989504856665)" fill="none" stroke="#8d6a1c" stroke-width="0.36" stroke-linecap="square" stroke-linejoin="bevel" d="M2.34 0.0585C1.635 -0.1365 0.855 0.156 0 0.936" sodipodi:nodetypes="cc"/><path id="shape49" transform="matrix(-1 0 0 -1 9.21954057880154 17.2004504882073)" fill="none" stroke="#8d6a1c" stroke-width="0.36" stroke-linecap="square" stroke-linejoin="bevel" d="M3.2175 0C2.8275 0.63 2.19 1.1625 1.305 1.5975L0 2.4525" sodipodi:nodetypes="ccc"/><path id="shape50" transform="matrix(-1 0 0 -1 12.9545405819633 14.5914732132715)" fill="none" stroke="#8d6a1c" stroke-width="0.36" stroke-linecap="square" stroke-linejoin="bevel" d="M0 0.518523C1.26 -0.0664773 2.4 -0.156477 3.42 0.248523" sodipodi:nodetypes="cc"/><path id="shape51" transform="matrix(-1 0 0 -1 10.6595405800205 14.3306391650233)" fill="none" stroke="#8d6a1c" stroke-width="0.36" stroke-linecap="square" stroke-linejoin="bevel" d="M0 0.550189C1.635 0.0101887 3.2475 -0.132311 4.8375 0.122689" sodipodi:nodetypes="cc"/><path id="shape52" transform="matrix(-1 0 0 -1 8.09454057784921 14.9279504862836)" fill="none" stroke="#8d6a1c" stroke-width="0.36" stroke-linecap="square" stroke-linejoin="bevel" d="M3.3075 0C2.2875 0.765 1.185 1.32 0 1.665" sodipodi:nodetypes="cc"/><path id="shape53" transform="matrix(-1 0 0 -1 12.0095405811633 17.2004504882073)" fill="none" stroke="#8d6a1c" stroke-width="0.36" stroke-linecap="square" stroke-linejoin="bevel" d="M3.69 0C2.0925 1.1025 2.16 0.7425 1.2375 1.0575C0.6225 1.2675 0.21 1.35 0 1.305" sodipodi:nodetypes="czc"/><path id="shape54" transform="matrix(-1 0 0 -1 12.4370405815252 16.3679504875026)" fill="none" stroke="#8d6a1c" stroke-width="0.36" stroke-linecap="square" stroke-linejoin="bevel" d="M0 0C1.56 0.705 3.18 1.05 4.86 1.035L5.4225 0.945" sodipodi:nodetypes="ccc"/><path id="shape55" transform="matrix(-1 0 0 -1 12.8645405818871 15.6049959414022)" fill="none" stroke="#8d6a1c" stroke-width="0.36" stroke-linecap="square" stroke-linejoin="bevel" d="M0.09 0.902045C1.335 0.272045 2.13 -0.0279545 2.475 0.00204545C1.56 0.227045 0.735 0.227045 0 0.00204545" sodipodi:nodetypes="ccc"/><path id="shape56" transform="matrix(-1 0 0 -1 7.91454057769683 15.4904504867598)" fill="none" stroke="#8d6a1c" stroke-width="0.36" stroke-linecap="square" stroke-linejoin="bevel" d="M0 0C0.15 0.51 0.5925 0.7875 1.3275 0.8325C2.0625 0.8775 2.4225 0.9075 2.4075 0.9225" sodipodi:nodetypes="czc"/><path id="shape57" transform="matrix(-1 0 0 -1 10.3670405797729 15.6254504868741)" fill="none" stroke="#8d6a1c" stroke-width="0.36" stroke-linecap="square" stroke-linejoin="bevel" d="M5.355 0C4.08 0.555 2.295 0.8775 0 0.9675L0.27 0.6075" sodipodi:nodetypes="ccc"/><path id="shape58" transform="matrix(-1 0 0 -1 7.68954057750637 17.2004504882073)" fill="none" stroke="#8d6a1c" stroke-width="0.36" stroke-linecap="square" stroke-linejoin="bevel" d="M2.8125 0C2.1225 0.51 1.185 0.9 0 1.17" sodipodi:nodetypes="cc"/><path id="shape59" transform="matrix(-1 0 0 -1 12.4145405815062 17.2004504882073)" fill="none" stroke="#8d6a1c" stroke-width="0.36" stroke-linecap="square" stroke-linejoin="bevel" d="M2.25 0C3.75 0.57 4.6575 0.8625 4.9725 0.8775C2.5725 0.8625 0.915 0.57 0 0" sodipodi:nodetypes="ccc"/><path id="shape60" transform="matrix(-1 0 0 -1 12.9770405819823 17.2004504882073)" fill="none" stroke="#8d6a1c" stroke-width="0.36" stroke-linecap="square" stroke-linejoin="bevel" d="M5.49 0C4.545 0.99 3.42 1.4025 2.115 1.2375L2.115 1.2375C1.32 1.0725 0.615 0.7425 0 0.2475" sodipodi:nodetypes="cccc"/><path id="shape61" transform="matrix(-1 0 0 -1 4.15704057451604 15.1675093100158)" fill="none" stroke="#8d6a1c" stroke-width="0.36" stroke-linecap="square" stroke-linejoin="bevel" d="M3.645 0.194559C2.52 -0.120441 1.59 -0.0529412 0.855 0.397059L0 0.0820588" sodipodi:nodetypes="ccc"/><path id="shape62" transform="matrix(-1 0 0 -1 1.70454057243996 16.8629504879216)" fill="none" stroke="#8d6a1c" stroke-width="0.36" stroke-linecap="square" stroke-linejoin="bevel" d="M0.2025 0C0.4125 0.855 0.345 1.6575 0 2.4075" sodipodi:nodetypes="cc"/><path id="shape63" transform="matrix(-1 0 0 -1 2.01954057270661 14.8829504862455)" fill="none" stroke="#8d6a1c" stroke-width="0.36" stroke-linecap="square" stroke-linejoin="bevel" d="M0.09 1.8675C0.525 1.1025 0.495 0.48 0 0C0.81 0.24 1.395 0.7575 1.755 1.5525" sodipodi:nodetypes="ccc"/><path id="shape64" transform="matrix(-1 0 0 -1 2.08704057276375 16.4129504875407)" fill="none" stroke="#8d6a1c" stroke-width="0.36" stroke-linecap="square" stroke-linejoin="bevel" d="M0.9675 3.3075C1.2525 2.5275 0.93 1.5975 0 0.5175L0 0" sodipodi:nodetypes="ccc"/><path id="shape65" transform="matrix(-1 0 0 -1 4.29204057463032 16.326491181616)" fill="none" stroke="#8d6a1c" stroke-width="0.36" stroke-linecap="square" stroke-linejoin="bevel" d="M0 0.116041C1.89 -0.153959 1.845 0.0935407 2.115 0.386041C2.295 0.581041 2.5725 0.873541 2.9475 1.26354" sodipodi:nodetypes="czc"/><path id="shape66" transform="matrix(-1 0 0 -1 4.35954057468746 17.2004504882073)" fill="none" stroke="#8d6a1c" stroke-width="0.36" stroke-linecap="square" stroke-linejoin="bevel" d="M0 2.3625C0.87 1.9275 1.11 1.365 0.72 0.675L0.405 0C0.84 0.735 1.305 1.17 1.8 1.305L2.8575 1.2375C2.1675 2.0325 1.7475 2.9775 1.5975 4.0725" sodipodi:nodetypes="cccccc"/><path id="shape67" transform="matrix(-1 0 0 -1 3.90954057430653 16.8854504879407)" fill="none" stroke="#8d6a1c" stroke-width="0.36" stroke-linecap="square" stroke-linejoin="bevel" d="M0.2925 0L1.5075 1.2825C0.7125 1.9275 0.21 2.73 0 3.69" sodipodi:nodetypes="ccc"/><path id="shape68" transform="matrix(-1 0 0 -1 1.02954057186856 15.3329504866265)" fill="none" stroke="#8d6a1c" stroke-width="0.36" stroke-linecap="square" stroke-linejoin="bevel" d="M0 0L0.27 0.8775" sodipodi:nodetypes="cc"/><path id="shape69" transform="matrix(6.12323399573676e-17 1 -1 6.12323399573676e-17 1.90348590115833 1.93500000438073)" fill="none" stroke="#8d6a1c" stroke-width="0.36" stroke-linecap="square" stroke-linejoin="bevel" d="M6.0075 0.823486C4.9275 0.800986 4.365 -0.121514 2.3175 0.0134859C0.9525 0.103486 0.2025 0.320986 0.0675 0.665986L0 0.710986" sodipodi:nodetypes="czcc"/><path id="shape70" transform="matrix(6.12323399573676e-17 1 -1 6.12323399573676e-17 3.24599999817661 1.50750000401884)" fill="none" stroke="#8d6a1c" stroke-width="0.36" stroke-linecap="square" stroke-linejoin="bevel" d="M6.5475 0.0285C5.175 0.7485 4.275 1.1985 3.375 0.4335C2.775 -0.0765 1.65 -0.1365 0 0.2535" sodipodi:nodetypes="czc"/><path id="shape71" transform="matrix(6.12323399573676e-17 1 -1 6.12323399573676e-17 1.13849999639258 2.97000000525688)" fill="none" stroke="#8d6a1c" stroke-width="0.36" stroke-linecap="square" stroke-linejoin="bevel" d="M2.34 0.0585C1.635 -0.1365 0.855 0.156 0 0.936" sodipodi:nodetypes="cc"/><path id="shape72" transform="matrix(6.12323399573676e-17 1 -1 6.12323399573676e-17 4.1399999989334 3.93750000607588)" fill="none" stroke="#8d6a1c" stroke-width="0.36" stroke-linecap="square" stroke-linejoin="bevel" d="M3.2175 0C2.8275 0.63 2.19 1.1625 1.305 1.5975L0 2.4525" sodipodi:nodetypes="ccc"/><path id="shape73" transform="matrix(6.12323399573676e-17 1 -1 6.12323399573676e-17 1.53102272399758 0.202500002914138)" fill="none" stroke="#8d6a1c" stroke-width="0.36" stroke-linecap="square" stroke-linejoin="bevel" d="M0 0.518523C1.26 -0.0664773 2.4 -0.156477 3.42 0.248523" sodipodi:nodetypes="cc"/><path id="shape74" transform="matrix(6.12323399573676e-17 1 -1 6.12323399573676e-17 1.27018867574933 2.49750000485689)" fill="none" stroke="#8d6a1c" stroke-width="0.36" stroke-linecap="square" stroke-linejoin="bevel" d="M0 0.550189C1.635 0.0101887 3.2475 -0.132311 4.8375 0.122689" sodipodi:nodetypes="cc"/><path id="shape75" transform="matrix(6.12323399573676e-17 1 -1 6.12323399573676e-17 1.86749999700969 5.06250000702821)" fill="none" stroke="#8d6a1c" stroke-width="0.36" stroke-linecap="square" stroke-linejoin="bevel" d="M3.3075 0C2.2875 0.765 1.185 1.32 0 1.665" sodipodi:nodetypes="cc"/><path id="shape76" transform="matrix(6.12323399573676e-17 1 -1 6.12323399573676e-17 4.1399999989334 1.1475000037141)" fill="none" stroke="#8d6a1c" stroke-width="0.36" stroke-linecap="square" stroke-linejoin="bevel" d="M3.69 0C2.0925 1.1025 2.16 0.7425 1.2375 1.0575C0.6225 1.2675 0.21 1.35 0 1.305" sodipodi:nodetypes="czc"/><path id="shape77" transform="matrix(6.12323399573676e-17 1 -1 6.12323399573676e-17 3.30749999822867 0.72000000335221)" fill="none" stroke="#8d6a1c" stroke-width="0.36" stroke-linecap="square" stroke-linejoin="bevel" d="M0 0C1.56 0.705 3.18 1.05 4.86 1.035L5.4225 0.945" sodipodi:nodetypes="ccc"/><path id="shape78" transform="matrix(6.12323399573676e-17 1 -1 6.12323399573676e-17 2.54454545212827 0.292500002990324)" fill="none" stroke="#8d6a1c" stroke-width="0.36" stroke-linecap="square" stroke-linejoin="bevel" d="M0.09 0.902045C1.335 0.272045 2.13 -0.0279545 2.475 0.00204545C1.56 0.227045 0.735 0.227045 0 0.00204545" sodipodi:nodetypes="ccc"/><path id="shape79" transform="matrix(6.12323399573676e-17 1 -1 6.12323399573676e-17 2.42999999748585 5.24250000718059)" fill="none" stroke="#8d6a1c" stroke-width="0.36" stroke-linecap="square" stroke-linejoin="bevel" d="M0 0C0.15 0.51 0.5925 0.7875 1.3275 0.8325C2.0625 0.8775 2.4225 0.9075 2.4075 0.9225" sodipodi:nodetypes="czc"/><path id="shape80" transform="matrix(6.12323399573676e-17 1 -1 6.12323399573676e-17 2.56499999760013 2.7900000051045)" fill="none" stroke="#8d6a1c" stroke-width="0.36" stroke-linecap="square" stroke-linejoin="bevel" d="M5.355 0C4.08 0.555 2.295 0.8775 0 0.9675L0.27 0.6075" sodipodi:nodetypes="ccc"/><path id="shape81" transform="matrix(6.12323399573676e-17 1 -1 6.12323399573676e-17 4.1399999989334 5.46750000737105)" fill="none" stroke="#8d6a1c" stroke-width="0.36" stroke-linecap="square" stroke-linejoin="bevel" d="M2.8125 0C2.1225 0.51 1.185 0.9 0 1.17" sodipodi:nodetypes="cc"/><path id="shape82" transform="matrix(6.12323399573676e-17 1 -1 6.12323399573676e-17 4.1399999989334 0.742500003371257)" fill="none" stroke="#8d6a1c" stroke-width="0.36" stroke-linecap="square" stroke-linejoin="bevel" d="M2.25 0C3.75 0.57 4.6575 0.8625 4.9725 0.8775C2.5725 0.8625 0.915 0.57 0 0" sodipodi:nodetypes="ccc"/><path id="shape83" transform="matrix(6.12323399573676e-17 1 -1 6.12323399573676e-17 4.1399999989334 0.180000002895091)" fill="none" stroke="#8d6a1c" stroke-width="0.36" stroke-linecap="square" stroke-linejoin="bevel" d="M5.49 0C4.545 0.99 3.42 1.4025 2.115 1.2375L2.115 1.2375C1.32 1.0725 0.615 0.7425 0 0.2475" sodipodi:nodetypes="cccc"/><path id="shape84" transform="matrix(6.12323399573676e-17 1 -1 6.12323399573676e-17 2.10705882074189 9.00000001036138)" fill="none" stroke="#8d6a1c" stroke-width="0.36" stroke-linecap="square" stroke-linejoin="bevel" d="M3.645 0.194559C2.52 -0.120441 1.59 -0.0529412 0.855 0.397059L0 0.0820588" sodipodi:nodetypes="ccc"/><path id="shape85" transform="matrix(6.12323399573676e-17 1 -1 6.12323399573676e-17 3.8024999986477 11.4525000124375)" fill="none" stroke="#8d6a1c" stroke-width="0.36" stroke-linecap="square" stroke-linejoin="bevel" d="M0.2025 0C0.4125 0.855 0.345 1.6575 0 2.4075" sodipodi:nodetypes="cc"/><path id="shape86" transform="matrix(6.12323399573676e-17 1 -1 6.12323399573676e-17 1.82249999697159 11.1375000121708)" fill="none" stroke="#8d6a1c" stroke-width="0.36" stroke-linecap="square" stroke-linejoin="bevel" d="M0.09 1.8675C0.525 1.1025 0.495 0.48 0 0C0.81 0.24 1.395 0.7575 1.755 1.5525" sodipodi:nodetypes="ccc"/><path id="shape87" transform="matrix(6.12323399573676e-17 1 -1 6.12323399573676e-17 3.35249999826677 11.0700000121137)" fill="none" stroke="#8d6a1c" stroke-width="0.36" stroke-linecap="square" stroke-linejoin="bevel" d="M0.9675 3.3075C1.2525 2.5275 0.93 1.5975 0 0.5175L0 0" sodipodi:nodetypes="ccc"/><path id="shape88" transform="matrix(6.12323399573676e-17 1 -1 6.12323399573676e-17 3.26604069234203 8.8650000102471)" fill="none" stroke="#8d6a1c" stroke-width="0.36" stroke-linecap="square" stroke-linejoin="bevel" d="M0 0.116041C1.89 -0.153959 1.845 0.0935407 2.115 0.386041C2.295 0.581041 2.5725 0.873541 2.9475 1.26354" sodipodi:nodetypes="czc"/><path id="shape89" transform="matrix(6.12323399573676e-17 1 -1 6.12323399573676e-17 4.1399999989334 8.79750001018996)" fill="none" stroke="#8d6a1c" stroke-width="0.36" stroke-linecap="square" stroke-linejoin="bevel" d="M0 2.3625C0.87 1.9275 1.11 1.365 0.72 0.675L0.405 0C0.84 0.735 1.305 1.17 1.8 1.305L2.8575 1.2375C2.1675 2.0325 1.7475 2.9775 1.5975 4.0725" sodipodi:nodetypes="cccccc"/><path id="shape90" transform="matrix(6.12323399573676e-17 1 -1 6.12323399573676e-17 3.82499999866675 9.24750001057089)" fill="none" stroke="#8d6a1c" stroke-width="0.36" stroke-linecap="square" stroke-linejoin="bevel" d="M0.2925 0L1.5075 1.2825C0.7125 1.9275 0.21 2.73 0 3.69" sodipodi:nodetypes="ccc"/><path id="shape91" transform="matrix(6.12323399573676e-17 1 -1 6.12323399573676e-17 2.27249999735253 12.1275000130089)" fill="none" stroke="#8d6a1c" stroke-width="0.36" stroke-linecap="square" stroke-linejoin="bevel" d="M0 0L0.27 0.8775" sodipodi:nodetypes="cc"/><path id="shape92" transform="translate(4.32000000365696, 0.585000000495213)" fill="none" stroke="#694d11" stroke-width="0.36" stroke-linecap="square" stroke-linejoin="bevel" d="M0 0L2.205 0.0225C3.42 0.0675 4.4475 0.21 5.2875 0.45C6.1275 0.69 6.5475 0.81 6.5475 0.81" sodipodi:nodetypes="cczc"/><path id="shape93" transform="translate(4.342500003676, 1.08000000091424)" fill="none" stroke="#694d11" stroke-width="0.36" stroke-linecap="square" stroke-linejoin="bevel" d="M0 0.2025L1.6875 0.18C2.6475 0.15 3.3225 0.1125 3.7125 0.0675C4.1025 0.0225 4.2975 0 4.2975 0" sodipodi:nodetypes="cczc"/><path id="shape94" transform="translate(4.36500000369505, 1.98000000167611)" fill="none" stroke="#694d11" stroke-width="0.36" stroke-linecap="square" stroke-linejoin="bevel" d="M0 0L3.51 0C4.455 0.015 5.355 0.1125 6.21 0.2925C7.065 0.4725 7.4925 0.5625 7.4925 0.5625" sodipodi:nodetypes="cczc"/><path id="shape95" transform="translate(4.32000000365696, 2.07000000175229)" fill="none" stroke="#694d11" stroke-width="0.36" stroke-linecap="square" stroke-linejoin="bevel" d="M0 1.3725L3.7125 1.3725C4.7625 1.2825 5.37 1.035 5.535 0.63C5.7 0.225 5.7825 0.015 5.7825 0" sodipodi:nodetypes="cczc"/><path id="shape96" transform="translate(7.51500000636158, 0.247500000209513)" fill="none" stroke="#694d11" stroke-width="0.36" stroke-linecap="square" stroke-linejoin="bevel" d="M0 0L0 0C0.36 0.075 0.8625 0.165 1.5075 0.27C2.1525 0.375 2.8725 0.39 3.6675 0.315L5.4225 0.315C6.3825 0.12 7.215 0.225 7.92 0.63C8.625 1.035 8.985 1.2375 9 1.2375" sodipodi:nodetypes="cczcczc"/><path id="shape97" transform="translate(6.77117647632016, 1.20000000101582)" fill="none" stroke="#694d11" stroke-width="0.36" stroke-linecap="square" stroke-linejoin="bevel" d="M0.00132353 0.7125C-0.0136765 0.7125 0.0988235 0.615 0.338824 0.42C0.698824 0.1275 0.541324 0.0825 2.38632 0.0825C3.61632 0.0825 4.87632 0.075 6.16632 0.06C6.97632 -0.06 7.51632 -2.08167e-16 7.78632 0.24C8.05632 0.48 8.53632 0.5475 9.22632 0.4425L9.27132 0.5775" sodipodi:nodetypes="czzczcc"/><path id="shape98" transform="translate(4.342500003676, 1.99384615553398)" fill="none" stroke="#694d11" stroke-width="0.36" stroke-linecap="square" stroke-linejoin="bevel" d="M0 0.728654L1.8 0.751154C2.745 0.721154 3.435 0.623654 3.87 0.458654C4.305 0.293654 4.5225 0.211154 4.5225 0.211154L8.595 0.0311538C9.3 -0.0588462 9.8025 0.0461538 10.1025 0.346154C10.4025 0.646154 10.5525 0.796154 10.5525 0.796154L10.5525 0.796154" sodipodi:nodetypes="cczcczcc"/><path id="shape99" transform="translate(6.48000000548544, 2.7000000022856)" fill="none" stroke="#694d11" stroke-width="0.36" stroke-linecap="square" stroke-linejoin="bevel" d="M0 0.36C0 0.36 0.3525 0.3 1.0575 0.18C1.7625 0.06 2.6775 2.96059e-16 3.8025 0L6.4575 0C6.9075 0.03 7.23 0.165 7.425 0.405C7.62 0.645 8.025 0.7125 8.64 0.6075" sodipodi:nodetypes="czcczc"/><path id="shape100" transform="translate(6.7050000056759, 2.16000000182848)" fill="none" stroke="#694d11" stroke-width="0.36" stroke-linecap="square" stroke-linejoin="bevel" d="M0 2.025C0 2.025 0.4875 1.89 1.4625 1.62C2.4375 1.35 3.27 1.2375 3.96 1.2825L6.255 1.26C6.96 1.26 7.3725 1.05 7.4925 0.63C7.6125 0.21 7.6725 0 7.6725 0" sodipodi:nodetypes="czcczc"/><path id="shape101" transform="translate(15.5475000131612, 2.22750000188562)" fill="none" stroke="#694d11" stroke-width="0.36" stroke-linecap="square" stroke-linejoin="bevel" d="M1.1925 2.0925L1.1925 0.6525C1.1025 0.2625 0.9 0.06 0.585 0.045C0.27 0.03 0.075 0.015 0 0" sodipodi:nodetypes="cczc"/><path id="shape102" transform="translate(14.5350000123041, 0.765000000647586)" fill="none" stroke="#694d11" stroke-width="0.36" stroke-linecap="square" stroke-linejoin="bevel" d="M1.5075 3.5775L1.485 2.34C1.32 1.5 1.035 0.9 0.63 0.54C0.225 0.18 0.015 0 0 0" sodipodi:nodetypes="cczc"/><path id="shape103" transform="translate(15.2710714414987, 1.41750000119994)" fill="none" stroke="#694d11" stroke-width="0.36" stroke-linecap="square" stroke-linejoin="bevel" d="M0.0289286 2.925L0.0289286 1.62C-0.0160714 1.26 -0.00857143 0.9 0.0514286 0.54C0.111429 0.18 0.141429 0 0.141429 0" sodipodi:nodetypes="cczc"/><path id="shape104" transform="translate(13.8600000117327, 2.88000000243797)" fill="none" stroke="#694d11" stroke-width="0.36" stroke-linecap="square" stroke-linejoin="bevel" d="M0.72 1.4625L0.6975 0.8775C0.6825 0.6525 0.5625 0.45 0.3375 0.27C0.1125 0.09 0 0 0 0" sodipodi:nodetypes="cczc"/><path id="shape105" transform="translate(13.3650000113137, 3.19500000270462)" fill="none" stroke="#694d11" stroke-width="0.36" stroke-linecap="square" stroke-linejoin="bevel" d="M0.5175 1.1475L0.5175 0.6075C0.4725 0.3825 0.375 0.225 0.225 0.135C0.075 0.045 0 0 0 0" sodipodi:nodetypes="cczc"/><path id="shape106" transform="matrix(6.12323399573676e-17 1 -1 6.12323399573676e-17 16.7175000042931 4.29750000499768)" fill="none" stroke="#694d11" stroke-width="0.36" stroke-linecap="square" stroke-linejoin="bevel" d="M0 0L2.205 0.0225C3.42 0.0675 4.4475 0.21 5.2875 0.45C6.1275 0.69 6.5475 0.81 6.5475 0.81" sodipodi:nodetypes="cczc"/><path id="shape107" transform="matrix(6.12323399573676e-17 1 -1 6.12323399573676e-17 16.2225000038741 4.32000000501673)" fill="none" stroke="#694d11" stroke-width="0.36" stroke-linecap="square" stroke-linejoin="bevel" d="M0 0.2025L1.6875 0.18C2.6475 0.15 3.3225 0.1125 3.7125 0.0675C4.1025 0.0225 4.2975 0 4.2975 0" sodipodi:nodetypes="cczc"/><path id="shape108" transform="matrix(6.12323399573676e-17 1 -1 6.12323399573676e-17 15.3225000031122 4.34250000503577)" fill="none" stroke="#694d11" stroke-width="0.36" stroke-linecap="square" stroke-linejoin="bevel" d="M0 0L3.51 0C4.455 0.015 5.355 0.1125 6.21 0.2925C7.065 0.4725 7.4925 0.5625 7.4925 0.5625" sodipodi:nodetypes="cczc"/><path id="shape109" transform="matrix(6.12323399573676e-17 1 -1 6.12323399573676e-17 15.232500003036 4.29750000499768)" fill="none" stroke="#694d11" stroke-width="0.36" stroke-linecap="square" stroke-linejoin="bevel" d="M0 1.3725L3.7125 1.3725C4.7625 1.2825 5.37 1.035 5.535 0.63C5.7 0.225 5.7825 0.015 5.7825 0" sodipodi:nodetypes="cczc"/><path id="shape110" transform="matrix(6.12323399573676e-17 1 -1 6.12323399573676e-17 17.0550000045788 7.4925000077023)" fill="none" stroke="#694d11" stroke-width="0.36" stroke-linecap="square" stroke-linejoin="bevel" d="M0 0L0 0C0.36 0.075 0.8625 0.165 1.5075 0.27C2.1525 0.375 2.8725 0.39 3.6675 0.315L5.4225 0.315C6.3825 0.12 7.215 0.225 7.92 0.63C8.625 1.035 8.985 1.2375 9 1.2375" sodipodi:nodetypes="cczcczc"/><path id="shape111" transform="matrix(6.12323399573676e-17 1 -1 6.12323399573676e-17 16.1025000037725 6.74867647766088)" fill="none" stroke="#694d11" stroke-width="0.36" stroke-linecap="square" stroke-linejoin="bevel" d="M0.00132353 0.7125C-0.0136765 0.7125 0.0988235 0.615 0.338824 0.42C0.698824 0.1275 0.541324 0.0825 2.38632 0.0825C3.61632 0.0825 4.87632 0.075 6.16632 0.06C6.97632 -0.06 7.51632 -2.08167e-16 7.78632 0.24C8.05632 0.48 8.53632 0.5475 9.22632 0.4425L9.27132 0.5775" sodipodi:nodetypes="czzczcc"/><path id="shape112" transform="matrix(6.12323399573676e-17 1 -1 6.12323399573676e-17 15.3086538492543 4.32000000501673)" fill="none" stroke="#694d11" stroke-width="0.36" stroke-linecap="square" stroke-linejoin="bevel" d="M0 0.728654L1.8 0.751154C2.745 0.721154 3.435 0.623654 3.87 0.458654C4.305 0.293654 4.5225 0.211154 4.5225 0.211154L8.595 0.0311538C9.3 -0.0588462 9.8025 0.0461538 10.1025 0.346154C10.4025 0.646154 10.5525 0.796154 10.5525 0.796154L10.5525 0.796154" sodipodi:nodetypes="cczcczcc"/><path id="shape113" transform="matrix(6.12323399573676e-17 1 -1 6.12323399573676e-17 14.6025000025027 6.45750000682616)" fill="none" stroke="#694d11" stroke-width="0.36" stroke-linecap="square" stroke-linejoin="bevel" d="M0 0.36C0 0.36 0.3525 0.3 1.0575 0.18C1.7625 0.06 2.6775 2.96059e-16 3.8025 0L6.4575 0C6.9075 0.03 7.23 0.165 7.425 0.405C7.62 0.645 8.025 0.7125 8.64 0.6075" sodipodi:nodetypes="czcczc"/><path id="shape114" transform="matrix(6.12323399573676e-17 1 -1 6.12323399573676e-17 15.1425000029598 6.68250000701662)" fill="none" stroke="#694d11" stroke-width="0.36" stroke-linecap="square" stroke-linejoin="bevel" d="M0 2.025C0 2.025 0.4875 1.89 1.4625 1.62C2.4375 1.35 3.27 1.2375 3.96 1.2825L6.255 1.26C6.96 1.26 7.3725 1.05 7.4925 0.63C7.6125 0.21 7.6725 0 7.6725 0" sodipodi:nodetypes="czcczc"/><path id="shape115" transform="matrix(6.12323399573676e-17 1 -1 6.12323399573676e-17 15.0750000029027 15.525000014502)" fill="none" stroke="#694d11" stroke-width="0.36" stroke-linecap="square" stroke-linejoin="bevel" d="M1.1925 2.0925L1.1925 0.6525C1.1025 0.2625 0.9 0.06 0.585 0.045C0.27 0.03 0.075 0.015 0 0" sodipodi:nodetypes="cczc"/><path id="shape116" transform="matrix(6.12323399573676e-17 1 -1 6.12323399573676e-17 16.5375000041407 14.5125000136449)" fill="none" stroke="#694d11" stroke-width="0.36" stroke-linecap="square" stroke-linejoin="bevel" d="M1.5075 3.5775L1.485 2.34C1.32 1.5 1.035 0.9 0.63 0.54C0.225 0.18 0.015 0 0 0" sodipodi:nodetypes="cczc"/><path id="shape117" transform="matrix(6.12323399573676e-17 1 -1 6.12323399573676e-17 15.8850000035884 15.2485714428394)" fill="none" stroke="#694d11" stroke-width="0.36" stroke-linecap="square" stroke-linejoin="bevel" d="M0.0289286 2.925L0.0289286 1.62C-0.0160714 1.26 -0.00857143 0.9 0.0514286 0.54C0.111429 0.18 0.141429 0 0.141429 0" sodipodi:nodetypes="cczc"/><path id="shape118" transform="matrix(6.12323399573676e-17 1 -1 6.12323399573676e-17 14.4225000023503 13.8375000130735)" fill="none" stroke="#694d11" stroke-width="0.36" stroke-linecap="square" stroke-linejoin="bevel" d="M0.72 1.4625L0.6975 0.8775C0.6825 0.6525 0.5625 0.45 0.3375 0.27C0.1125 0.09 0 0 0 0" sodipodi:nodetypes="cczc"/><path id="shape119" transform="matrix(6.12323399573676e-17 1 -1 6.12323399573676e-17 14.1075000020837 13.3425000126544)" fill="none" stroke="#694d11" stroke-width="0.36" stroke-linecap="square" stroke-linejoin="bevel" d="M0.5175 1.1475L0.5175 0.6075C0.4725 0.3825 0.375 0.225 0.225 0.135C0.075 0.045 0 0 0 0" sodipodi:nodetypes="cczc"/><path id="shape120" transform="matrix(-1 0 0 -1 12.959999996343 16.6949999995048)" fill="none" stroke="#694d11" stroke-width="0.36" stroke-linecap="square" stroke-linejoin="bevel" d="M0 0L2.205 0.0225C3.42 0.0675 4.4475 0.21 5.2875 0.45C6.1275 0.69 6.5475 0.81 6.5475 0.81" sodipodi:nodetypes="cczc"/><path id="shape121" transform="matrix(-1 0 0 -1 12.937499996324 16.1999999990858)" fill="none" stroke="#694d11" stroke-width="0.36" stroke-linecap="square" stroke-linejoin="bevel" d="M0 0.2025L1.6875 0.18C2.6475 0.15 3.3225 0.1125 3.7125 0.0675C4.1025 0.0225 4.2975 0 4.2975 0" sodipodi:nodetypes="cczc"/><path id="shape122" transform="matrix(-1 0 0 -1 12.914999996305 15.2999999983239)" fill="none" stroke="#694d11" stroke-width="0.36" stroke-linecap="square" stroke-linejoin="bevel" d="M0 0L3.51 0C4.455 0.015 5.355 0.1125 6.21 0.2925C7.065 0.4725 7.4925 0.5625 7.4925 0.5625" sodipodi:nodetypes="cczc"/><path id="shape123" transform="matrix(-1 0 0 -1 12.959999996343 15.2099999982477)" fill="none" stroke="#694d11" stroke-width="0.36" stroke-linecap="square" stroke-linejoin="bevel" d="M0 1.3725L3.7125 1.3725C4.7625 1.2825 5.37 1.035 5.535 0.63C5.7 0.225 5.7825 0.015 5.7825 0" sodipodi:nodetypes="cczc"/><path id="shape124" transform="matrix(-1 0 0 -1 9.76499999363842 17.0324999997905)" fill="none" stroke="#694d11" stroke-width="0.36" stroke-linecap="square" stroke-linejoin="bevel" d="M0 0L0 0C0.36 0.075 0.8625 0.165 1.5075 0.27C2.1525 0.375 2.8725 0.39 3.6675 0.315L5.4225 0.315C6.3825 0.12 7.215 0.225 7.92 0.63C8.625 1.035 8.985 1.2375 9 1.2375" sodipodi:nodetypes="cczcczc"/><path id="shape125" transform="matrix(-1 0 0 -1 10.5088235236798 16.0799999989842)" fill="none" stroke="#694d11" stroke-width="0.36" stroke-linecap="square" stroke-linejoin="bevel" d="M0.00132353 0.7125C-0.0136765 0.7125 0.0988235 0.615 0.338824 0.42C0.698824 0.1275 0.541324 0.0825 2.38632 0.0825C3.61632 0.0825 4.87632 0.075 6.16632 0.06C6.97632 -0.06 7.51632 -2.08167e-16 7.78632 0.24C8.05632 0.48 8.53632 0.5475 9.22632 0.4425L9.27132 0.5775" sodipodi:nodetypes="czzczcc"/><path id="shape126" transform="matrix(-1 0 0 -1 12.937499996324 15.286153844466)" fill="none" stroke="#694d11" stroke-width="0.36" stroke-linecap="square" stroke-linejoin="bevel" d="M0 0.728654L1.8 0.751154C2.745 0.721154 3.435 0.623654 3.87 0.458654C4.305 0.293654 4.5225 0.211154 4.5225 0.211154L8.595 0.0311538C9.3 -0.0588462 9.8025 0.0461538 10.1025 0.346154C10.4025 0.646154 10.5525 0.796154 10.5525 0.796154L10.5525 0.796154" sodipodi:nodetypes="cczcczcc"/><path id="shape127" transform="matrix(-1 0 0 -1 10.7999999945146 14.5799999977144)" fill="none" stroke="#694d11" stroke-width="0.36" stroke-linecap="square" stroke-linejoin="bevel" d="M0 0.36C0 0.36 0.3525 0.3 1.0575 0.18C1.7625 0.06 2.6775 2.96059e-16 3.8025 0L6.4575 0C6.9075 0.03 7.23 0.165 7.425 0.405C7.62 0.645 8.025 0.7125 8.64 0.6075" sodipodi:nodetypes="czcczc"/><path id="shape128" transform="matrix(-1 0 0 -1 10.5749999943241 15.1199999981715)" fill="none" stroke="#694d11" stroke-width="0.36" stroke-linecap="square" stroke-linejoin="bevel" d="M0 2.025C0 2.025 0.4875 1.89 1.4625 1.62C2.4375 1.35 3.27 1.2375 3.96 1.2825L6.255 1.26C6.96 1.26 7.3725 1.05 7.4925 0.63C7.6125 0.21 7.6725 0 7.6725 0" sodipodi:nodetypes="czcczc"/><path id="shape129" transform="matrix(-1 0 0 -1 1.73249998683876 15.0524999981144)" fill="none" stroke="#694d11" stroke-width="0.36" stroke-linecap="square" stroke-linejoin="bevel" d="M1.1925 2.0925L1.1925 0.6525C1.1025 0.2625 0.9 0.06 0.585 0.045C0.27 0.03 0.075 0.015 0 0" sodipodi:nodetypes="cczc"/><path id="shape130" transform="matrix(-1 0 0 -1 2.74499998769586 16.5149999993524)" fill="none" stroke="#694d11" stroke-width="0.36" stroke-linecap="square" stroke-linejoin="bevel" d="M1.5075 3.5775L1.485 2.34C1.32 1.5 1.035 0.9 0.63 0.54C0.225 0.18 0.015 0 0 0" sodipodi:nodetypes="cczc"/><path id="shape131" transform="matrix(-1 0 0 -1 2.00892855850134 15.8624999988001)" fill="none" stroke="#694d11" stroke-width="0.36" stroke-linecap="square" stroke-linejoin="bevel" d="M0.0289286 2.925L0.0289286 1.62C-0.0160714 1.26 -0.00857143 0.9 0.0514286 0.54C0.111429 0.18 0.141429 0 0.141429 0" sodipodi:nodetypes="cczc"/><path id="shape132" transform="matrix(-1 0 0 -1 3.41999998826726 14.399999997562)" fill="none" stroke="#694d11" stroke-width="0.36" stroke-linecap="square" stroke-linejoin="bevel" d="M0.72 1.4625L0.6975 0.8775C0.6825 0.6525 0.5625 0.45 0.3375 0.27C0.1125 0.09 0 0 0 0" sodipodi:nodetypes="cczc"/><path id="shape133" transform="matrix(-1 0 0 -1 3.91499998868629 14.0849999972954)" fill="none" stroke="#694d11" stroke-width="0.36" stroke-linecap="square" stroke-linejoin="bevel" d="M0.5175 1.1475L0.5175 0.6075C0.4725 0.3825 0.375 0.225 0.225 0.135C0.075 0.045 0 0 0 0" sodipodi:nodetypes="cczc"/><path id="shape134" transform="matrix(6.12323399573676e-17 -1 1 6.12323399573676e-17 0.540000000304739 12.9599999964954)" fill="none" stroke="#694d11" stroke-width="0.36" stroke-linecap="square" stroke-linejoin="bevel" d="M0 0L2.205 0.0225C3.42 0.0675 4.4475 0.21 5.2875 0.45C6.1275 0.69 6.5475 0.81 6.5475 0.81" sodipodi:nodetypes="cczc"/><path id="shape135" transform="matrix(6.12323399573676e-17 -1 1 6.12323399573676e-17 1.03500000072377 12.9374999964764)" fill="none" stroke="#694d11" stroke-width="0.36" stroke-linecap="square" stroke-linejoin="bevel" d="M0 0.2025L1.6875 0.18C2.6475 0.15 3.3225 0.1125 3.7125 0.0675C4.1025 0.0225 4.2975 0 4.2975 0" sodipodi:nodetypes="cczc"/><path id="shape136" transform="matrix(6.12323399573676e-17 -1 1 6.12323399573676e-17 1.93500000148563 12.9149999964573)" fill="none" stroke="#694d11" stroke-width="0.36" stroke-linecap="square" stroke-linejoin="bevel" d="M0 0L3.51 0C4.455 0.015 5.355 0.1125 6.21 0.2925C7.065 0.4725 7.4925 0.5625 7.4925 0.5625" sodipodi:nodetypes="cczc"/><path id="shape137" transform="matrix(6.12323399573676e-17 -1 1 6.12323399573676e-17 2.02500000156182 12.9599999964954)" fill="none" stroke="#694d11" stroke-width="0.36" stroke-linecap="square" stroke-linejoin="bevel" d="M0 1.3725L3.7125 1.3725C4.7625 1.2825 5.37 1.035 5.535 0.63C5.7 0.225 5.7825 0.015 5.7825 0" sodipodi:nodetypes="cczc"/><path id="shape138" transform="matrix(6.12323399573676e-17 -1 1 6.12323399573676e-17 0.20250000001904 9.76499999379079)" fill="none" stroke="#694d11" stroke-width="0.36" stroke-linecap="square" stroke-linejoin="bevel" d="M0 0L0 0C0.36 0.075 0.8625 0.165 1.5075 0.27C2.1525 0.375 2.8725 0.39 3.6675 0.315L5.4225 0.315C6.3825 0.12 7.215 0.225 7.92 0.63C8.625 1.035 8.985 1.2375 9 1.2375" sodipodi:nodetypes="cczcczc"/><path id="shape139" transform="matrix(6.12323399573676e-17 -1 1 6.12323399573676e-17 1.15500000082535 10.5088235238322)" fill="none" stroke="#694d11" stroke-width="0.36" stroke-linecap="square" stroke-linejoin="bevel" d="M0.00132353 0.7125C-0.0136765 0.7125 0.0988235 0.615 0.338824 0.42C0.698824 0.1275 0.541324 0.0825 2.38632 0.0825C3.61632 0.0825 4.87632 0.075 6.16632 0.06C6.97632 -0.06 7.51632 -2.08167e-16 7.78632 0.24C8.05632 0.48 8.53632 0.5475 9.22632 0.4425L9.27132 0.5775" sodipodi:nodetypes="czzczcc"/><path id="shape140" transform="matrix(6.12323399573676e-17 -1 1 6.12323399573676e-17 1.94884615534351 12.9374999964764)" fill="none" stroke="#694d11" stroke-width="0.36" stroke-linecap="square" stroke-linejoin="bevel" d="M0 0.728654L1.8 0.751154C2.745 0.721154 3.435 0.623654 3.87 0.458654C4.305 0.293654 4.5225 0.211154 4.5225 0.211154L8.595 0.0311538C9.3 -0.0588462 9.8025 0.0461538 10.1025 0.346154C10.4025 0.646154 10.5525 0.796154 10.5525 0.796154L10.5525 0.796154" sodipodi:nodetypes="cczcczcc"/><path id="shape141" transform="matrix(6.12323399573676e-17 -1 1 6.12323399573676e-17 2.65500000209512 10.7999999946669)" fill="none" stroke="#694d11" stroke-width="0.36" stroke-linecap="square" stroke-linejoin="bevel" d="M0 0.36C0 0.36 0.3525 0.3 1.0575 0.18C1.7625 0.06 2.6775 2.96059e-16 3.8025 0L6.4575 0C6.9075 0.03 7.23 0.165 7.425 0.405C7.62 0.645 8.025 0.7125 8.64 0.6075" sodipodi:nodetypes="czcczc"/><path id="shape142" transform="matrix(6.12323399573676e-17 -1 1 6.12323399573676e-17 2.115000001638 10.5749999944765)" fill="none" stroke="#694d11" stroke-width="0.36" stroke-linecap="square" stroke-linejoin="bevel" d="M0 2.025C0 2.025 0.4875 1.89 1.4625 1.62C2.4375 1.35 3.27 1.2375 3.96 1.2825L6.255 1.26C6.96 1.26 7.3725 1.05 7.4925 0.63C7.6125 0.21 7.6725 0 7.6725 0" sodipodi:nodetypes="czcczc"/><path id="shape143" transform="matrix(6.12323399573676e-17 -1 1 6.12323399573676e-17 2.18250000169515 1.73249998699114)" fill="none" stroke="#694d11" stroke-width="0.36" stroke-linecap="square" stroke-linejoin="bevel" d="M1.1925 2.0925L1.1925 0.6525C1.1025 0.2625 0.9 0.06 0.585 0.045C0.27 0.03 0.075 0.015 0 0" sodipodi:nodetypes="cczc"/><path id="shape144" transform="matrix(6.12323399573676e-17 -1 1 6.12323399573676e-17 0.720000000457113 2.74499998784824)" fill="none" stroke="#694d11" stroke-width="0.36" stroke-linecap="square" stroke-linejoin="bevel" d="M1.5075 3.5775L1.485 2.34C1.32 1.5 1.035 0.9 0.63 0.54C0.225 0.18 0.015 0 0 0" sodipodi:nodetypes="cczc"/><path id="shape145" transform="matrix(6.12323399573676e-17 -1 1 6.12323399573676e-17 1.37250000100947 2.00892855865372)" fill="none" stroke="#694d11" stroke-width="0.36" stroke-linecap="square" stroke-linejoin="bevel" d="M0.0289286 2.925L0.0289286 1.62C-0.0160714 1.26 -0.00857143 0.9 0.0514286 0.54C0.111429 0.18 0.141429 0 0.141429 0" sodipodi:nodetypes="cczc"/><path id="shape146" transform="matrix(6.12323399573676e-17 -1 1 6.12323399573676e-17 2.8350000022475 3.41999998841964)" fill="none" stroke="#694d11" stroke-width="0.36" stroke-linecap="square" stroke-linejoin="bevel" d="M0.72 1.4625L0.6975 0.8775C0.6825 0.6525 0.5625 0.45 0.3375 0.27C0.1125 0.09 0 0 0 0" sodipodi:nodetypes="cczc"/><path id="shape147" transform="matrix(6.12323399573676e-17 -1 1 6.12323399573676e-17 3.15000000251415 3.91499998883867)" fill="none" stroke="#694d11" stroke-width="0.36" stroke-linecap="square" stroke-linejoin="bevel" d="M0.5175 1.1475L0.5175 0.6075C0.4725 0.3825 0.375 0.225 0.225 0.135C0.075 0.045 0 0 0 0" sodipodi:nodetypes="cczc"/>
</svg>
