<?xml version="1.0" standalone="no"?>
<!DOCTYPE svg PUBLIC "-//W3C//DTD SVG 20010904//EN" "http://www.w3.org/TR/2001/REC-SVG-20010904/DTD/svg10.dtd">
<!-- Created using Krita: https://krita.org -->
<svg xmlns="http://www.w3.org/2000/svg" 
    xmlns:xlink="http://www.w3.org/1999/xlink"
    xmlns:krita="http://krita.org/namespaces/svg/krita"
    xmlns:sodipodi="http://sodipodi.sourceforge.net/DTD/sodipodi-0.dtd"
    width="153pt"
    height="28.08pt"
    viewBox="0 0 153 28.08">
<defs/>
<g id="g15" transform="matrix(0.479999990151562 0 0 -0.479999990151562 0 240.000002275781)" fill="none">
  <g id="g63" transform="translate(314.24786, 464.20196)" fill="none">
   <path id="path65" transform="translate(-310.538543479049, -22.5646087170088)" fill="#198017" stroke-opacity="0" stroke="#000000" stroke-width="0" stroke-linecap="square" stroke-linejoin="bevel" d="M310.539 22.5646C309.985 26.5156 305.93 28.6046 302.279 28.6706C302.61 30.1216 302.794 31.5746 302.841 32.9286C303.125 41.1276 295.113 43.6246 288.498 41.7866C285.631 45.4936 281.47 48.1626 276.663 48.8066C270.845 49.5846 262.345 46.4746 256.264 41.5866C256.052 42.0026 255.819 42.4086 255.557 42.8026C252.392 47.5476 246.698 47.1726 242.122 44.4476C241.457 46.0646 240.625 47.5836 239.573 48.9026C232.317 57.9946 220.193 54.9366 213.992 47.2176C209.566 49.4346 204.303 49.4336 200.058 47.2036C198.593 49.5646 196.499 51.4966 193.69 51.9876C188.189 52.9516 183.712 48.9146 181.704 43.8496C177.763 43.5146 173.599 41.9496 170.476 39.4816C169.68 41.1116 168.552 42.5466 166.994 43.6116C162.638 46.5886 157.097 45.1726 152.537 42.9456C152.454 43.3496 152.369 43.7536 152.253 44.1466C151.226 47.6066 147.451 51.1066 143.578 49.9956C141.099 49.2846 137.896 46.2516 135.921 42.8776C135.345 43.1116 134.715 43.2796 134.018 43.3616C132.084 43.5886 129.684 42.8576 127.683 41.6656C127.656 41.7156 127.635 41.7666 127.606 41.8156C125.524 45.3566 121.266 47.0016 117.431 45.4206C115.344 44.5616 113.154 42.6696 111.505 40.3756C110.606 41.4246 109.62 42.3666 108.545 43.1436C101.774 48.0386 94.7125 45.1706 90.3705 38.7166C89.7685 37.8216 88.6625 34.9656 87.8125 31.7246C86.6435 33.7016 84.9975 35.4006 83.0925 36.5486C79.2375 38.8706 74.5025 38.1896 70.4055 36.4506C69.6905 40.4376 67.1925 43.8906 62.5855 45.1116C57.9595 46.3366 53.1795 43.5796 50.2875 39.5546C49.8265 40.0656 49.3515 40.5546 48.8505 40.9956C44.1665 45.1076 37.6435 44.3726 33.7965 39.6596C32.6365 38.2386 31.6965 36.5996 31.0835 34.8906C28.2185 36.5896 24.9755 37.4706 22.1085 36.9936C16.3755 36.0386 14.0585 30.6876 13.4315 25.4816C13.4275 25.4516 13.4265 25.4186 13.4235 25.3876C6.58054 23.0406 -0.360457 18.9926 0.0145435 12.2436C0.744543 -0.898391 7.31554 0.196609 7.31554 0.196609L297.873 0.196609C298.581 0.0446087 299.32 -0.0223913 300.044 0.00660872C303.244 0.135609 306.612 1.50561 308.517 4.14861C310.704 7.18561 309.701 10.7126 307.364 13.3446C309.686 15.8426 311.043 18.9756 310.539 22.5646" sodipodi:nodetypes="cccccccccccccccccccccccccccccccccccccccccccc"/>
  </g>
  <g id="g67" transform="translate(301.88356, 458.05636)" fill="none">
   <path id="path69" transform="translate(-289.032551351203, -13.3029074476259)" fill="#3b9217" stroke-opacity="0" stroke="#000000" stroke-width="0" stroke-linecap="square" stroke-linejoin="bevel" d="M289.033 13.3029C288.488 15.6819 286.047 17.4429 283.999 19.1149C291.099 31.2039 275.065 35.1359 266.417 30.4219C264.585 34.8679 259.863 36.8349 255.15 37.3519C249.27 37.9979 242.516 36.5039 238.173 32.8899C237.994 33.3009 237.798 33.7089 237.557 34.1139C234.727 38.8849 228.816 41.5689 223.488 41.9429C217.895 42.3349 213.23 38.2999 211.169 33.4139C210.847 32.6499 210.644 31.0029 210.7 29.2999C210.437 29.4469 210.178 29.5949 209.925 29.7469C211.907 35.8529 202.505 37.5219 197.415 37.2959C194.53 37.1669 190.08 36.9419 187.79 34.8969C186.558 33.7959 185.47 32.5709 184.663 31.2609C183.646 32.5619 182.138 33.6219 180.173 34.1569C172.452 36.2639 166.029 33.9729 162.877 27.9519C160.718 31.2009 154.438 32.0539 149.57 31.0249C147.422 37.4369 141.284 39.5889 134.327 35.2879C132.802 34.3449 130.33 31.7549 128.596 28.9279C127.45 31.7599 124.723 33.5599 121.795 34.7679C114.937 37.5989 107.663 33.6009 104.829 27.6399C102.992 27.9989 101.077 27.8829 99.2726 27.2689C95.8726 32.0999 87.8846 30.7079 82.1816 28.2759C81.0046 27.7739 79.8666 27.1619 78.7736 26.4739C76.7696 28.8699 74.0466 30.5549 70.9906 30.0939C68.4476 29.7099 65.9176 27.1959 65.5576 24.6499C65.4386 23.8059 65.4546 22.9859 65.5936 22.2069C65.0866 22.3029 64.5746 22.3879 64.0546 22.4509C63.0936 26.7889 59.2526 30.2099 54.3956 29.4799C50.6936 28.9239 48.7156 26.4209 48.1856 23.4409C48.0236 23.9969 47.5246 24.4119 46.7636 24.1889C46.5796 24.1349 46.3926 24.0829 46.2046 24.0319C46.0376 24.3079 45.8606 24.5759 45.6686 24.8339C44.3076 28.6729 40.5436 31.6769 36.4536 32.1699C31.6866 32.7449 29.3096 30.9439 27.9856 27.5529C26.8276 27.2539 25.7136 26.4519 24.6056 25.4919C21.7506 28.0239 17.7716 30.4069 14.8266 30.0489C14.2586 29.9789 13.7406 29.8259 13.2556 29.6309C8.45555 31.4699 4.71855 23.6299 5.98455 18.0729C1.04755 15.4819 -2.71845 8.74191 2.54955 5.70491C4.88755 4.35691 7.85755 4.40991 10.6606 5.35891C11.4136 3.37391 12.9146 1.67191 14.8826 0.783907C18.1086 -0.670093 21.4376 0.306907 24.0406 2.48991C25.0426 3.32891 25.9306 4.58891 26.5876 6.01291C29.2786 5.84191 31.6976 7.36491 33.6486 9.38491C34.9076 8.45591 36.1816 7.76391 37.4536 7.40391C37.5666 7.20891 37.6806 7.01391 37.8036 6.81991C41.8086 0.474907 50.0456 -0.503093 56.5076 2.09791C60.5286 -1.05509 66.7826 0.521907 70.5266 3.69191C71.6996 2.63691 73.1846 1.94991 74.8516 1.88991C76.7686 1.81991 78.3246 2.49491 79.6476 3.56891C84.2616 0.725907 90.0726 -0.0300926 95.3706 0.163907C100.073 0.335907 104.741 1.89891 108.447 4.79391C113.735 2.93191 120.093 2.11091 125.562 2.68491C128.556 2.99891 132.498 4.50091 135.558 6.82391C138.517 4.92091 142.051 3.55291 144.51 2.57891C149.488 0.606907 158.355 3.00791 159.45 8.44991C159.995 8.58191 160.505 8.75091 160.994 8.93991C165.377 4.67091 173.009 1.62891 177.675 3.28691C179.779 4.03491 183.069 6.80891 183.957 9.20591C185.041 7.77091 186.347 6.48391 187.619 5.44291C191.572 2.20591 195.649 1.39191 200.512 2.26591C203.974 2.88891 207.936 4.70091 210.379 7.19991C211.539 6.02791 212.862 5.04991 214.048 4.38891C219.044 1.60291 226.691 0.621907 231.895 3.40691C233.163 4.08591 234.902 5.20391 236.059 6.58391C236.227 6.38091 236.401 6.18091 236.588 5.98691C240.381 2.06291 247.4 1.38691 252.52 1.66791C253.617 1.72791 254.903 1.86391 256.162 2.11591C259.909 0.682907 264.099 0.128907 267.962 0.0129074C273.35 -0.150093 281.832 1.20991 285.691 5.27991C288.045 7.76191 289.853 9.72691 289.033 13.3029" sodipodi:nodetypes="ccccccccccccccccccccccccccccccccccccccccccccccccccccccccccccccccccccccc"/>
  </g>
  <g id="g71" transform="translate(64.436861, 463.01586)" fill="none">
   <path id="path73" transform="translate(-39.6465705395598, -12.8491094802656)" fill="#59a617" stroke-opacity="0" stroke="#000000" stroke-width="0" stroke-linecap="square" stroke-linejoin="bevel" d="M39.6466 12.8491C40.9086 15.0981 41.0116 17.8201 39.7176 20.4351C37.6876 24.5371 32.1006 24.3211 28.4726 23.1371C27.6856 22.8791 26.6386 22.4601 25.5746 21.9111C24.6566 23.0541 23.4686 23.9821 22.1276 24.5561C19.6726 25.6071 16.5956 25.9111 14.2906 24.2871C12.8116 23.2461 11.9536 21.6491 11.8286 19.9951C7.89257 21.3351 2.44757 20.0111 0.682571 16.5051C-1.52443 12.1221 1.97157 8.81311 6.15057 7.43111C6.09857 6.14611 6.53657 4.84311 7.64657 3.73211C11.3396 0.0391095 15.9666 1.96811 19.0096 5.12311C22.1466 3.00111 26.1086 1.14811 29.2666 3.26911C29.3176 3.30411 29.3586 3.35011 29.4096 3.38611C29.5896 3.19911 29.7736 3.02211 29.9606 2.86411C32.4936 0.737109 36.3466 -0.808891 39.6076 0.457109C43.5106 1.97211 44.5836 6.47111 42.6406 9.99011C41.9546 11.2321 40.8876 12.1761 39.6466 12.8491" sodipodi:nodetypes="ccccccccccccccccc"/>
  </g>
  <g id="g75" transform="translate(106.88746, 475.47486)" fill="none">
   <path id="path77" transform="translate(-26.8263616324427, -22.3599933015073)" fill="#59a617" stroke-opacity="0" stroke="#000000" stroke-width="0" stroke-linecap="square" stroke-linejoin="bevel" d="M26.8264 22.36C22.6964 29.192 10.2044 24.009 11.2694 17.208C6.03236 18.76 -1.35164 15.748 0.213362 9.98899C1.96136 3.55799 8.44536 4.27599 13.6934 6.42099C14.2534 3.32299 15.8804 0.574993 19.4514 0.0759933C23.2824 -0.458007 26.1874 1.89399 28.1704 4.87899C31.4914 2.68099 35.5054 2.42499 38.8394 5.97499C40.1324 7.35199 40.6864 9.09099 40.6354 10.762C43.3824 13.54 44.0544 18.571 40.7044 21.606C37.5144 24.496 31.2784 24.367 26.8264 22.36" sodipodi:nodetypes="cccccccccc"/>
  </g>
  <g id="g79" transform="translate(175.25276, 464.01786)" fill="none">
   <path id="path81" transform="translate(-41.5889773142151, -13.3481142316149)" fill="#59a617" stroke-opacity="0" stroke="#000000" stroke-width="0" stroke-linecap="square" stroke-linejoin="bevel" d="M41.589 13.3481C44.04 16.8121 43.277 21.6731 39.173 23.7421C35.555 25.5671 30.502 24.2941 27.347 22.0341C27.3 22.0001 27.251 21.9631 27.203 21.9281C27.128 22.0881 27.066 22.2541 26.98 22.4091C26.338 23.6661 25.788 25.0691 24.809 26.1161C22.689 28.3821 19.56 29.1731 16.546 28.8011C11.467 28.1721 5.30998 24.4771 6.04098 19.1531C3.81498 18.1421 1.63998 16.0271 0.794977 14.3391C-0.397023 11.9581 -0.444023 8.85611 2.01798 7.24911C3.58198 6.22811 5.48598 6.15511 7.39398 6.49611C7.57398 5.23611 8.11798 3.96711 9.07098 2.77011C10.522 0.948114 12.405 -0.0378858 14.751 0.00111423C16.01 0.0231142 17.048 0.785114 18.275 0.893114C19.743 1.02311 21.18 0.672114 22.57 0.255114C23.778 -0.107886 25.485 0.449114 26.033 1.66411C26.289 2.23211 26.508 2.80011 26.706 3.36711C28.437 3.53511 30.157 4.06411 31.622 4.87611C32.768 4.10911 34.02 3.51811 35.041 3.15611C38.38 1.97511 42.778 1.95411 44.935 5.17811C47.114 8.43911 44.636 11.9941 41.589 13.3481" sodipodi:nodetypes="ccccccccccccccccccccc"/>
  </g>
  <g id="g83" transform="translate(232.90846, 471.69406)" fill="none">
   <path id="path85" transform="translate(-51.5393300898772, -20.5149969247375)" fill="#59a617" stroke-opacity="0" stroke="#000000" stroke-width="0" stroke-linecap="square" stroke-linejoin="bevel" d="M51.5393 20.515C50.8803 25.968 44.5713 27.465 39.6043 26.318C39.9173 28.618 39.4193 30.961 37.7273 32.903C32.9453 38.39 23.2183 33.977 21.4043 27.709C19.1263 29.283 16.2813 29.995 13.3763 29.29C9.39933 28.323 7.84933 22.443 9.35433 19.004C4.38933 18.461 -0.78467 14.533 0.0993301 9.685C1.03833 4.536 8.03433 4.697 13.2043 6.276C13.9323 3.068 15.7093 0.131997 19.3973 0.00499692C22.8773 -0.114003 25.3993 1.906 27.0393 4.616C30.5613 1.634 35.4713 0.0619969 38.9923 3.415C39.6533 4.045 40.1343 4.844 40.4843 5.728C42.6653 5.239 44.9103 5.7 46.3673 7.663C47.5383 9.243 47.3083 11.298 46.4483 13.028C49.6053 14.193 51.9973 16.719 51.5393 20.515" sodipodi:nodetypes="ccccccccccccccc"/>
  </g>
  <g id="g87" transform="translate(287.70046, 468.60716)" fill="none">
   <path id="path89" transform="translate(-48.6378509608724, -15.9063457947553)" fill="#59a617" stroke-opacity="0" stroke="#000000" stroke-width="0" stroke-linecap="square" stroke-linejoin="bevel" d="M48.6379 15.9063C47.4919 17.3163 45.4719 18.2983 43.4199 18.5693C43.7959 21.0883 42.9649 23.8583 40.6889 25.5933C37.0689 28.3513 31.7669 28.0403 27.4739 26.4413C25.6579 29.9303 22.0489 31.1983 17.8999 29.1193C16.1139 28.2243 14.0129 25.5653 13.9049 23.3823C12.8049 23.6843 11.5339 23.7113 10.3999 23.5523C6.06785 22.9413 1.42985 19.1653 0.108851 15.0313C-0.260149 13.8733 0.348851 12.6383 1.33485 12.0213C3.84885 10.4463 6.74785 10.0233 9.55885 10.4493C9.71485 8.56635 10.5659 6.67335 12.1839 5.03035C15.4119 1.75135 18.6909 3.02635 20.9909 5.63735C22.9949 2.78135 25.6129 0.280346 29.0049 0.0183458C32.8019 -0.273654 34.1579 2.96735 34.0709 6.36535C34.1739 6.31435 34.2779 6.25835 34.3789 6.21235C37.9939 4.55835 42.7849 4.09935 46.4459 5.88535C50.2599 7.74735 51.3569 12.5663 48.6379 15.9063" sodipodi:nodetypes="ccccccccccccccccc"/>
  </g>
 </g>
</svg>
